<svg width="20" height="20" viewBox="0 0 20 20" fill="none" xmlns="http://www.w3.org/2000/svg">
<path opacity="0.2" d="M15.0248 11.9006L10.7209 13.4865L9.13496 17.7904C9.09115 17.9091 9.01203 18.0115 8.90824 18.0838C8.80445 18.1561 8.68099 18.1949 8.55449 18.1949C8.42799 18.1949 8.30453 18.1561 8.20074 18.0838C8.09695 18.0115 8.01783 17.9091 7.97402 17.7904L6.38808 13.4865L2.08418 11.9006C1.9655 11.8568 1.86311 11.7777 1.79078 11.6739C1.71846 11.5701 1.67969 11.4466 1.67969 11.3201C1.67969 11.1936 1.71846 11.0702 1.79078 10.9664C1.86311 10.8626 1.9655 10.7835 2.08418 10.7396L6.38808 9.15371L7.97402 4.8498C8.01783 4.73113 8.09695 4.62873 8.20074 4.55641C8.30453 4.48409 8.42799 4.44531 8.55449 4.44531C8.68099 4.44531 8.80445 4.48409 8.90824 4.55641C9.01203 4.62873 9.09115 4.73113 9.13496 4.8498L10.7209 9.15371L15.0248 10.7396C15.1435 10.7835 15.2459 10.8626 15.3182 10.9664C15.3905 11.0702 15.4293 11.1936 15.4293 11.3201C15.4293 11.4466 15.3905 11.5701 15.3182 11.6739C15.2459 11.7777 15.1435 11.8568 15.0248 11.9006Z" fill="#555770"/>
<path d="M15.2438 10.1531L11.2141 8.66406L9.72974 4.63125C9.64184 4.39244 9.4828 4.18635 9.27408 4.04077C9.06537 3.89519 8.81702 3.81714 8.56255 3.81714C8.30808 3.81714 8.05973 3.89519 7.85102 4.04077C7.64231 4.18635 7.48327 4.39244 7.39536 4.63125L5.90161 8.66406L1.8688 10.1484C1.63 10.2363 1.4239 10.3954 1.27832 10.6041C1.13274 10.8128 1.05469 11.0612 1.05469 11.3156C1.05469 11.5701 1.13274 11.8184 1.27832 12.0272C1.4239 12.2359 1.63 12.3949 1.8688 12.4828L5.90161 13.9766L7.38599 18.0094C7.47389 18.2482 7.63293 18.4543 7.84164 18.5999C8.05036 18.7454 8.29871 18.8235 8.55318 18.8235C8.80765 18.8235 9.05599 18.7454 9.26471 18.5999C9.47342 18.4543 9.63246 18.2482 9.72036 18.0094L11.2141 13.9766L15.2469 12.4922C15.4857 12.4043 15.6918 12.2452 15.8374 12.0365C15.983 11.8278 16.061 11.5795 16.061 11.325C16.061 11.0705 15.983 10.8222 15.8374 10.6135C15.6918 10.4048 15.4857 10.2457 15.2469 10.1578L15.2438 10.1531ZM10.511 12.9C10.4262 12.9313 10.3491 12.9806 10.2852 13.0445C10.2212 13.1084 10.1719 13.1855 10.1407 13.2703L8.55786 17.5586L6.97818 13.2734C6.94696 13.1877 6.89735 13.1099 6.83284 13.0453C6.76832 12.9808 6.69047 12.9312 6.60474 12.9L2.31958 11.3203L6.60474 9.74063C6.69047 9.70941 6.76832 9.6598 6.83284 9.59529C6.89735 9.53077 6.94696 9.45292 6.97818 9.36719L8.55786 5.08203L10.1376 9.36719C10.1688 9.45202 10.2181 9.52907 10.2821 9.593C10.346 9.65693 10.423 9.70623 10.5079 9.7375L14.7961 11.3203L10.511 12.9ZM11.0579 3.19531C11.0579 3.02955 11.1237 2.87058 11.2409 2.75337C11.3581 2.63616 11.5171 2.57031 11.6829 2.57031H12.9329V1.32031C12.9329 1.15455 12.9987 0.995581 13.1159 0.878371C13.2331 0.761161 13.3921 0.695313 13.5579 0.695312C13.7236 0.695313 13.8826 0.761161 13.9998 0.878371C14.117 0.995581 14.1829 1.15455 14.1829 1.32031V2.57031H15.4329C15.5986 2.57031 15.7576 2.63616 15.8748 2.75337C15.992 2.87058 16.0579 3.02955 16.0579 3.19531C16.0579 3.36107 15.992 3.52004 15.8748 3.63725C15.7576 3.75446 15.5986 3.82031 15.4329 3.82031H14.1829V5.07031C14.1829 5.23607 14.117 5.39504 13.9998 5.51225C13.8826 5.62946 13.7236 5.69531 13.5579 5.69531C13.3921 5.69531 13.2331 5.62946 13.1159 5.51225C12.9987 5.39504 12.9329 5.23607 12.9329 5.07031V3.82031H11.6829C11.5171 3.82031 11.3581 3.75446 11.2409 3.63725C11.1237 3.52004 11.0579 3.36107 11.0579 3.19531ZM19.1829 6.94531C19.1829 7.11107 19.117 7.27004 18.9998 7.38725C18.8826 7.50446 18.7236 7.57031 18.5579 7.57031H17.9329V8.19531C17.9329 8.36107 17.867 8.52004 17.7498 8.63725C17.6326 8.75446 17.4736 8.82031 17.3079 8.82031C17.1421 8.82031 16.9831 8.75446 16.8659 8.63725C16.7487 8.52004 16.6829 8.36107 16.6829 8.19531V7.57031H16.0579C15.8921 7.57031 15.7331 7.50446 15.6159 7.38725C15.4987 7.27004 15.4329 7.11107 15.4329 6.94531C15.4329 6.77955 15.4987 6.62058 15.6159 6.50337C15.7331 6.38616 15.8921 6.32031 16.0579 6.32031H16.6829V5.69531C16.6829 5.52955 16.7487 5.37058 16.8659 5.25337C16.9831 5.13616 17.1421 5.07031 17.3079 5.07031C17.4736 5.07031 17.6326 5.13616 17.7498 5.25337C17.867 5.37058 17.9329 5.52955 17.9329 5.69531V6.32031H18.5579C18.7236 6.32031 18.8826 6.38616 18.9998 6.50337C19.117 6.62058 19.1829 6.77955 19.1829 6.94531Z" fill="#555770"/>
</svg>
