<svg width="20" height="20" viewBox="0 0 20 20" fill="none" xmlns="http://www.w3.org/2000/svg">
<path opacity="0.2" d="M16.9125 17.1603C15.4766 18.5961 11.2458 16.6911 7.45741 12.9052C3.66904 9.11937 1.76653 4.88851 3.20237 3.45016C4.63822 2.01182 8.86908 3.91933 12.6574 7.70519C16.4458 11.4911 18.3483 15.7219 16.9125 17.1603Z" fill="#555770"/>
<path d="M15.7313 10.3046C17.7855 7.42044 18.833 4.43958 17.3764 2.9829C15.9197 1.52622 12.9388 2.57373 10.0546 4.62792C7.17044 2.57373 4.18958 1.52622 2.7329 2.9829C1.27622 4.43958 2.32373 7.42044 4.37792 10.3046C2.32373 13.1888 1.27622 16.1697 2.7329 17.6263C3.20207 18.0955 3.82874 18.3047 4.55875 18.3047C6.09876 18.3047 8.09878 17.3738 10.0588 15.9813C12.0105 17.3738 14.0105 18.3047 15.5547 18.3047C16.2847 18.3047 16.9122 18.0947 17.3805 17.6263C18.833 16.1697 17.7855 13.1888 15.7313 10.3046ZM16.4338 3.92541C17.0705 4.56208 16.6405 6.62543 14.8905 9.19878C14.3369 8.51343 13.7474 7.85779 13.1247 7.2346C12.5014 6.61268 11.8458 6.02408 11.1605 5.47126C13.7338 3.72124 15.7972 3.28791 16.4338 3.92541ZM14.0788 10.3046C13.4891 11.0506 12.8558 11.761 12.1821 12.4321C11.511 13.1058 10.8006 13.7391 10.0546 14.3288C9.30865 13.7391 8.59824 13.1058 7.92711 12.4321C7.25346 11.761 6.62012 11.0506 6.03043 10.3046C7.21352 8.81375 8.56375 7.46352 10.0546 6.28043C10.8006 6.87012 11.511 7.50346 12.1821 8.17711C12.8558 8.84823 13.4891 9.55865 14.0788 10.3046ZM3.67541 3.92541C3.85874 3.74124 4.16125 3.64624 4.56042 3.64624C5.54542 3.64624 7.11794 4.22125 8.94795 5.47126C8.26331 6.02453 7.60797 6.61311 6.9846 7.2346C6.36268 7.85786 5.77408 8.5135 5.22126 9.19878C3.47124 6.62543 3.03874 4.56208 3.67541 3.92541ZM3.67541 16.6838C3.03874 16.0472 3.47124 13.9838 5.22126 11.4105C5.77489 12.0958 6.36433 12.7515 6.9871 13.3746C7.60995 13.9961 8.26473 14.5847 8.94878 15.138C6.37543 16.888 4.31208 17.3213 3.67541 16.6838ZM16.4338 16.6838C15.7972 17.3213 13.7338 16.8905 11.1605 15.1405C11.8454 14.5864 12.5011 13.997 13.1247 13.3746C13.7466 12.7514 14.3352 12.0958 14.888 11.4105C16.638 13.9838 17.0705 16.0472 16.4338 16.6838ZM11.0546 10.3046C11.0546 10.5024 10.996 10.6957 10.8861 10.8602C10.7762 11.0247 10.62 11.1528 10.4373 11.2285C10.2546 11.3042 10.0535 11.324 9.85953 11.2854C9.66555 11.2468 9.48737 11.1516 9.34751 11.0117C9.20766 10.8719 9.11242 10.6937 9.07383 10.4997C9.03525 10.3057 9.05505 10.1047 9.13074 9.92194C9.20643 9.73921 9.3346 9.58303 9.49905 9.47315C9.6635 9.36327 9.85684 9.30462 10.0546 9.30462C10.3198 9.30462 10.5742 9.40998 10.7617 9.59751C10.9493 9.78505 11.0546 10.0394 11.0546 10.3046Z" fill="#555770"/>
</svg>
