<svg width="20" height="20" viewBox="0 0 20 20" fill="none" xmlns="http://www.w3.org/2000/svg">
<path opacity="0.2" d="M16.7031 2.75781H4.20312C4.03736 2.75781 3.87839 2.82366 3.76118 2.94087C3.64397 3.05808 3.57812 3.21705 3.57812 3.38281V15.8828C3.57812 16.0486 3.64397 16.2075 3.76118 16.3248C3.87839 16.442 4.03736 16.5078 4.20312 16.5078H16.7031C16.8689 16.5078 17.0279 16.442 17.1451 16.3248C17.2623 16.2075 17.3281 16.0486 17.3281 15.8828V3.38281C17.3281 3.21705 17.2623 3.05808 17.1451 2.94087C17.0279 2.82366 16.8689 2.75781 16.7031 2.75781ZM7.32812 14.0078C7.0809 14.0078 6.83922 13.9345 6.63366 13.7971C6.4281 13.6598 6.26788 13.4646 6.17328 13.2362C6.07867 13.0078 6.05391 12.7564 6.10214 12.5139C6.15037 12.2715 6.26943 12.0487 6.44424 11.8739C6.61906 11.6991 6.84179 11.5801 7.08426 11.5318C7.32674 11.4836 7.57807 11.5084 7.80648 11.603C8.03489 11.6976 8.23011 11.8578 8.36746 12.0633C8.50481 12.2689 8.57812 12.5106 8.57812 12.7578C8.57812 13.0893 8.44643 13.4073 8.21201 13.6417C7.97759 13.8761 7.65965 14.0078 7.32812 14.0078ZM13.5781 9.00781C13.3309 9.00781 13.0892 8.9345 12.8837 8.79715C12.6781 8.6598 12.5179 8.46457 12.4233 8.23617C12.3287 8.00776 12.3039 7.75643 12.3521 7.51395C12.4004 7.27147 12.5194 7.04874 12.6942 6.87393C12.8691 6.69911 13.0918 6.58006 13.3343 6.53183C13.5767 6.4836 13.8281 6.50835 14.0565 6.60296C14.2849 6.69757 14.4801 6.85779 14.6175 7.06335C14.7548 7.26891 14.8281 7.51059 14.8281 7.75781C14.8281 8.08933 14.6964 8.40728 14.462 8.6417C14.2276 8.87612 13.9096 9.00781 13.5781 9.00781Z" fill="#555770"/>
<path d="M16.7031 2.13281H4.20312C3.8716 2.13281 3.55366 2.26451 3.31924 2.49893C3.08482 2.73335 2.95313 3.05129 2.95312 3.38281V15.8828C2.95313 16.2143 3.08482 16.5323 3.31924 16.7667C3.55366 17.0011 3.8716 17.1328 4.20312 17.1328H16.7031C17.0346 17.1328 17.3526 17.0011 17.587 16.7667C17.8214 16.5323 17.9531 16.2143 17.9531 15.8828V3.38281C17.9531 3.05129 17.8214 2.73335 17.587 2.49893C17.3526 2.26451 17.0346 2.13281 16.7031 2.13281ZM7.32812 12.1328C7.45174 12.1328 7.57258 12.1695 7.67536 12.2381C7.77814 12.3068 7.85824 12.4044 7.90555 12.5186C7.95285 12.6328 7.96523 12.7585 7.94112 12.8797C7.917 13.001 7.85747 13.1123 7.77007 13.1998C7.68266 13.2872 7.57129 13.3467 7.45006 13.3708C7.32882 13.3949 7.20315 13.3825 7.08895 13.3352C6.97474 13.2879 6.87713 13.2078 6.80846 13.105C6.73978 13.0023 6.70312 12.8814 6.70312 12.7578C6.70312 12.5921 6.76897 12.4331 6.88618 12.3159C7.00339 12.1987 7.16236 12.1328 7.32812 12.1328ZM4.20312 3.38281H6.70312V10.9906C6.28612 11.1381 5.93465 11.4282 5.71086 11.8097C5.48706 12.1912 5.40533 12.6395 5.48013 13.0755C5.55492 13.5114 5.78142 13.9069 6.11959 14.1919C6.45776 14.477 6.88582 14.6334 7.32812 14.6334C7.77043 14.6334 8.19849 14.477 8.53666 14.1919C8.87483 13.9069 9.10133 13.5114 9.17612 13.0755C9.25092 12.6395 9.16919 12.1912 8.94539 11.8097C8.7216 11.4282 8.37013 11.1381 7.95312 10.9906V8.64141L11.7031 12.3914V15.8828H4.20312V3.38281ZM16.7031 15.8828H12.9531V12.1328C12.9532 12.0507 12.9371 11.9694 12.9057 11.8935C12.8743 11.8177 12.8283 11.7487 12.7703 11.6906L7.95312 6.87422V3.38281H10.4531V5.25781C10.4531 5.33991 10.4692 5.42122 10.5005 5.49709C10.5319 5.57297 10.5779 5.64191 10.6359 5.7L11.8859 6.95C11.7649 7.20205 11.7024 7.4782 11.7031 7.75781C11.7031 8.12865 11.8131 8.49116 12.0191 8.79951C12.2251 9.10785 12.518 9.34817 12.8606 9.49009C13.2032 9.632 13.5802 9.66913 13.9439 9.59679C14.3076 9.52444 14.6417 9.34586 14.904 9.08364C15.1662 8.82141 15.3448 8.48732 15.4171 8.12361C15.4894 7.75989 15.4523 7.38289 15.3104 7.04028C15.1685 6.69767 14.9282 6.40483 14.6198 6.19881C14.3115 5.99278 13.949 5.88281 13.5781 5.88281C13.2985 5.88232 13.0223 5.94509 12.7703 6.06641L11.7031 4.99922V3.38281H16.7031V15.8828ZM13.5781 7.13281C13.7017 7.13281 13.8226 7.16947 13.9254 7.23814C14.0281 7.30682 14.1082 7.40443 14.1556 7.51864C14.2029 7.63284 14.2152 7.75851 14.1911 7.87974C14.167 8.00098 14.1075 8.11235 14.0201 8.19975C13.9327 8.28716 13.8213 8.34669 13.7001 8.3708C13.5788 8.39492 13.4532 8.38254 13.3389 8.33524C13.2247 8.28793 13.1271 8.20782 13.0585 8.10504C12.9898 8.00226 12.9531 7.88143 12.9531 7.75781C12.9531 7.59205 13.019 7.43308 13.1362 7.31587C13.2534 7.19866 13.4124 7.13281 13.5781 7.13281Z" fill="#555770"/>
</svg>
