<svg width="22" height="20" viewBox="0 0 22 20" fill="none" xmlns="http://www.w3.org/2000/svg">
<g id="Challenge-Type/Variant14">
<path id="Vector" opacity="0.2" d="M20.625 10C15.125 10 20.625 16.875 15.125 16.875H6.875C1.375 16.875 6.875 10 1.375 10C6.875 10 1.375 3.125 6.875 3.125H15.125C20.625 3.125 15.125 10 20.625 10Z" fill="#D61E27"/>
<path id="Vector_2" d="M3.71055 10C4.0019 10.2179 4.23667 10.4916 4.39805 10.8016C4.81055 11.575 4.81055 12.5203 4.81055 13.4375C4.81055 15.3367 4.89648 16.25 6.87305 16.25C7.05538 16.25 7.23025 16.3158 7.35918 16.4331C7.48811 16.5503 7.56055 16.7092 7.56055 16.875C7.56055 17.0408 7.48811 17.1997 7.35918 17.3169C7.23025 17.4342 7.05538 17.5 6.87305 17.5C5.37086 17.5 4.35336 17.0203 3.84805 16.0734C3.43555 15.3 3.43555 14.3547 3.43555 13.4375C3.43555 11.5383 3.34961 10.625 1.37305 10.625C1.19071 10.625 1.01584 10.5592 0.886911 10.4419C0.75798 10.3247 0.685547 10.1658 0.685547 10C0.685547 9.83424 0.75798 9.67527 0.886911 9.55806C1.01584 9.44085 1.19071 9.375 1.37305 9.375C3.34961 9.375 3.43555 8.46172 3.43555 6.5625C3.43555 5.64687 3.43555 4.7 3.84805 3.92656C4.35508 2.97969 5.37258 2.5 6.87477 2.5C7.0571 2.5 7.23197 2.56585 7.3609 2.68306C7.48983 2.80027 7.56227 2.95924 7.56227 3.125C7.56227 3.29076 7.48983 3.44973 7.3609 3.56694C7.23197 3.68415 7.0571 3.75 6.87477 3.75C4.8982 3.75 4.81227 4.66328 4.81227 6.5625C4.81227 7.47813 4.81227 8.425 4.39977 9.19844C4.23789 9.50858 4.00252 9.78231 3.71055 10ZM20.6248 9.375C18.6482 9.375 18.5623 8.46172 18.5623 6.5625C18.5623 5.64687 18.5623 4.7 18.1498 3.92656C17.6445 2.97969 16.627 2.5 15.1248 2.5C14.9424 2.5 14.7676 2.56585 14.6386 2.68306C14.5097 2.80027 14.4373 2.95924 14.4373 3.125C14.4373 3.29076 14.5097 3.44973 14.6386 3.56694C14.7676 3.68415 14.9424 3.75 15.1248 3.75C17.1013 3.75 17.1873 4.66328 17.1873 6.5625C17.1873 7.47813 17.1873 8.425 17.5998 9.19844C17.7611 9.50842 17.9959 9.78214 18.2873 10C17.9959 10.2179 17.7611 10.4916 17.5998 10.8016C17.1873 11.575 17.1873 12.5203 17.1873 13.4375C17.1873 15.3367 17.1013 16.25 15.1248 16.25C14.9424 16.25 14.7676 16.3158 14.6386 16.4331C14.5097 16.5503 14.4373 16.7092 14.4373 16.875C14.4373 17.0408 14.5097 17.1997 14.6386 17.3169C14.7676 17.4342 14.9424 17.5 15.1248 17.5C16.627 17.5 17.6445 17.0203 18.1498 16.0734C18.5623 15.3 18.5623 14.3547 18.5623 13.4375C18.5623 11.5383 18.6482 10.625 20.6248 10.625C20.8071 10.625 20.982 10.5592 21.1109 10.4419C21.2398 10.3247 21.3123 10.1658 21.3123 10C21.3123 9.83424 21.2398 9.67527 21.1109 9.55806C20.982 9.44085 20.8071 9.375 20.6248 9.375Z" fill="#D61E27"/>
</g>
</svg>
