<?xml version="1.0" encoding="UTF-8"?>
<svg version="1.1" xmlns="http://www.w3.org/2000/svg" width="512" height="512">
<path d="M0 0 C1.61230751 0.00424484 1.61230751 0.00424484 3.25718689 0.00857544 C6.65985677 0.01968976 10.06225464 0.04477803 13.46484375 0.0703125 C15.78450138 0.08035361 18.10416318 0.08947747 20.42382812 0.09765625 C26.0834367 0.11960042 31.74284425 0.15406944 37.40234375 0.1953125 C37.40234375 5.4753125 37.40234375 10.7553125 37.40234375 16.1953125 C35.27623657 16.21718628 35.27623657 16.21718628 33.10717773 16.23950195 C27.83088394 16.29762694 22.55501056 16.37485955 17.27905273 16.45776367 C14.99884889 16.49094617 12.71856422 16.51899874 10.43823242 16.54174805 C7.15378493 16.57541632 3.87007361 16.62773976 0.5859375 16.68359375 C-0.42787491 16.68998367 -1.44168732 16.6963736 -2.48622131 16.70295715 C-9.81505934 16.85399631 -14.92754453 17.64387241 -20.41015625 22.8828125 C-24.93511785 29.73489721 -24.89188552 36.96011063 -24.87612915 44.9140625 C-24.88192155 45.97037086 -24.88771395 47.02667921 -24.89368188 48.11499691 C-24.91063855 51.64180004 -24.91355469 55.16847195 -24.91650391 58.6953125 C-24.92580505 61.22848327 -24.935974 63.76165098 -24.94694519 66.29481506 C-24.96858847 71.7420462 -24.98421223 77.1892413 -24.99431229 82.63650513 C-25.00892555 90.51222764 -25.03446973 98.38788518 -25.06264357 106.26356947 C-25.10806355 119.04272049 -25.14469814 131.82188088 -25.17578125 144.60107422 C-25.20598645 157.01157273 -25.24034576 169.42204833 -25.28027344 181.83251953 C-25.28396576 182.98085364 -25.28396576 182.98085364 -25.28773268 184.15238643 C-25.30010766 187.99312789 -25.31256412 191.83386907 -25.32506108 195.67461014 C-25.42855707 227.51481388 -25.5172404 259.35504188 -25.59765625 291.1953125 C-13.38765625 291.1953125 -1.17765625 291.1953125 11.40234375 291.1953125 C11.40234375 248.6253125 11.40234375 206.0553125 11.40234375 162.1953125 C12.39234375 162.1953125 13.38234375 162.1953125 14.40234375 162.1953125 C14.00740723 161.24277588 13.6124707 160.29023926 13.20556641 159.30883789 C11.74366255 155.75207156 10.33709501 152.17548521 8.94580078 148.59057617 C8.33751917 147.04561848 7.71460924 145.50633412 7.07666016 143.97338867 C1.83450774 131.33561747 1.83450774 131.33561747 3.12597656 126.46777344 C4.68513826 124.08877084 6.40152972 122.21396912 8.40234375 120.1953125 C9.61859188 118.60762637 10.81600747 117.00537054 11.99609375 115.390625 C13.29590889 113.6987758 14.59807702 112.00873229 15.90234375 110.3203125 C21.42823154 103.1189745 26.89766498 95.88163041 32.27734375 88.5703125 C33.1600293 87.37172607 33.1600293 87.37172607 34.06054688 86.14892578 C36.23019091 83.19365442 38.36823207 80.24648003 40.40234375 77.1953125 C41.39234375 77.1953125 42.38234375 77.1953125 43.40234375 77.1953125 C44.83764648 78.68554688 44.83764648 78.68554688 46.3359375 80.7890625 C46.89619629 81.56403076 47.45645508 82.33899902 48.03369141 83.13745117 C48.62972168 83.98154541 49.22575195 84.82563965 49.83984375 85.6953125 C51.10610873 87.45230028 52.37304645 89.2088034 53.640625 90.96484375 C54.27436035 91.84865723 54.9080957 92.7324707 55.56103516 93.64306641 C57.69570546 96.60194248 59.86937844 99.5283965 62.06738281 102.44042969 C63.04180754 103.73683823 64.00603567 105.04097311 64.95996094 106.35253906 C67.48491243 109.79970637 70.08949263 112.97021173 73.0625 116.04296875 C79.94798867 123.45760876 79.94798867 123.45760876 81.40234375 128.1953125 C81.16516338 134.5277734 78.25190716 140.22175963 75.51953125 145.82714844 C73.89202325 149.27706705 72.68133836 152.83491851 71.46484375 156.4453125 C70.77802437 158.36222317 70.09082141 160.2789968 69.40234375 162.1953125 C71.05234375 162.1953125 72.70234375 162.1953125 74.40234375 162.1953125 C74.40234375 204.7653125 74.40234375 247.3353125 74.40234375 291.1953125 C86.94234375 291.1953125 99.48234375 291.1953125 112.40234375 291.1953125 C112.40234375 287.2353125 112.40234375 283.2753125 112.40234375 279.1953125 C112.60766551 275.56129057 112.8438177 271.94747735 113.13671875 268.32128906 C113.21474731 267.30826218 113.29277588 266.29523529 113.37316895 265.25151062 C113.62872395 261.94598055 113.89060451 258.64098308 114.15234375 255.3359375 C114.33219474 253.01816533 114.51154839 250.70035453 114.69042969 248.38250732 C115.16006547 242.30924684 115.63464776 236.23638484 116.11083984 230.16363525 C116.87380375 220.43153222 117.63211737 210.6990756 118.3848877 200.96617889 C118.64809202 197.57816654 118.91520853 194.19047816 119.18261719 190.80279541 C119.34456179 188.7191287 119.50635377 186.63545012 119.66796875 184.55175781 C119.78017761 183.15043861 119.78017761 183.15043861 119.89465332 181.72080994 C121.27272638 172.10808657 121.27272638 172.10808657 118.27734375 163.6953125 C117.32859375 162.8703125 116.37984375 162.0453125 115.40234375 161.1953125 C105.83376813 150.35418974 103.76740274 138.52550632 104.26171875 124.4375 C105.41459138 106.0555864 111.32642117 84.81957456 125.40234375 72.1953125 C133.56833705 65.5569328 142.06232506 60.62006082 152.40234375 58.1953125 C155.40234375 59.1953125 155.40234375 59.1953125 156.3503418 60.77075195 C156.75313354 61.77948364 156.75313354 61.77948364 157.1640625 62.80859375 C157.47400146 63.55625 157.78394043 64.30390625 158.10327148 65.07421875 C158.42884033 65.87730469 158.75440918 66.68039063 159.08984375 67.5078125 C163.89653107 78.79201434 169.8803576 87.66978266 178.23046875 96.7109375 C188.27434334 108.1999739 192.42360071 121.01242503 191.78125 136.109375 C191.02678495 146.29347065 186.83979985 154.40260248 180.40234375 162.1953125 C179.70254898 162.70610855 179.00275421 163.2169046 178.28175354 163.74317932 C175.37482925 167.53594743 176.15973854 170.97728619 176.55053711 175.58569336 C176.61275672 176.51592536 176.67497633 177.44615736 176.73908138 178.40457821 C176.94010451 181.33665944 177.1701528 184.26555306 177.40234375 187.1953125 C177.52966901 188.97864618 177.65529837 190.76210189 177.77908325 192.54568481 C178.09873121 197.06126713 178.44652979 201.57418865 178.80444527 206.08688545 C179.03881195 209.04465243 179.26880496 212.0027338 179.49778748 214.96092224 C180.14820122 223.35339454 180.80649563 231.74524416 181.46655273 240.13696289 C181.87358712 245.31559476 182.27609185 250.49456378 182.67600822 255.67374992 C182.82771891 257.62610639 182.98118601 259.57832728 183.13653755 261.53039742 C183.35378711 264.26026974 183.56527685 266.99053641 183.77563477 269.72094727 C183.83951889 270.50507996 183.90340302 271.28921265 183.96922302 272.09710693 C184.45443475 278.51759348 184.40234375 284.69624749 184.40234375 291.1953125 C195.29234375 291.1953125 206.18234375 291.1953125 217.40234375 291.1953125 C217.40234375 238.0653125 217.40234375 184.9353125 217.40234375 130.1953125 C243.14234375 130.1953125 268.88234375 130.1953125 295.40234375 130.1953125 C295.40234375 183.3253125 295.40234375 236.4553125 295.40234375 291.1953125 C306.62234375 291.1953125 317.84234375 291.1953125 329.40234375 291.1953125 C329.33950195 286.36229492 329.27666016 281.52927734 329.21191406 276.54980469 C329.01246872 260.52481772 328.87967263 244.49977972 328.78059769 228.47387314 C328.71896016 218.76367254 328.63507079 209.05465532 328.49707031 199.34521484 C328.37671696 190.87328579 328.29987156 182.40221439 328.27328181 173.92945409 C328.25775962 169.45083747 328.2218131 164.97467232 328.13358307 160.49684906 C327.46835299 125.38053985 327.46835299 125.38053985 339.91879272 110.0816803 C342.2727741 107.08854115 344.15048066 103.83335925 346.07421875 100.5546875 C347.43240887 98.35083184 348.79174523 96.14768209 350.15234375 93.9453125 C350.86859969 92.78392207 351.5847453 91.62246358 352.30078125 90.4609375 C354.00023427 87.70506774 355.70074093 84.94985518 357.40234375 82.1953125 C360.9605674 83.62364369 362.30341102 85.15624804 364.1796875 88.46484375 C364.68725586 89.34430664 365.19482422 90.22376953 365.71777344 91.12988281 C366.25305664 92.07959961 366.78833984 93.02931641 367.33984375 94.0078125 C368.48751785 95.99988931 369.63731827 97.99074237 370.7890625 99.98046875 C371.67537354 101.51598389 371.67537354 101.51598389 372.57958984 103.08251953 C376.05383801 109.01563823 379.71104409 114.83516019 383.35131836 120.66723633 C383.86831299 121.49634521 384.38530762 122.3254541 384.91796875 123.1796875 C385.60294434 124.27361816 385.60294434 124.27361816 386.30175781 125.38964844 C388.50520359 129.00470722 388.52589195 131.32394641 388.52259827 135.58596802 C388.5238799 136.58083452 388.5238799 136.58083452 388.52518743 137.59579933 C388.52684055 139.82837898 388.52132362 142.06088425 388.51586914 144.29345703 C388.51558721 145.88979083 388.51574512 147.48612477 388.51631165 149.0824585 C388.51659938 153.42518806 388.51070655 157.76789018 388.50373769 162.11061335 C388.49750013 166.64567076 388.49690003 171.18072875 388.49571228 175.71578979 C388.49260015 184.30764295 388.48438836 192.89948342 388.47436279 201.49133098 C388.46319798 211.27111701 388.45769027 221.05090363 388.45266736 230.83069444 C388.44220565 250.95224244 388.42386163 271.07377307 388.40234375 291.1953125 C410.84234375 291.1953125 433.28234375 291.1953125 456.40234375 291.1953125 C456.31889298 258.59116442 456.22837895 225.98707189 456.12229214 193.38299167 C456.10977343 189.53283453 456.09734063 185.68267712 456.08496094 181.83251953 C456.08126195 180.68278526 456.08126195 180.68278526 456.07748823 179.50982404 C456.03777627 167.10274287 456.00502202 154.69565261 455.97484393 142.28854501 C455.94371801 129.55549935 455.90510372 116.82249225 455.85955369 104.08948994 C455.83168776 96.23403458 455.80964651 88.37860739 455.79508124 80.52311593 C455.78328214 74.49714984 455.76105895 68.47126793 455.73496056 62.44534492 C455.72589028 59.97505262 455.72019583 57.50474527 455.71813011 55.03443718 C455.71480378 51.66087279 455.69931573 48.28757291 455.68081665 44.9140625 C455.68371875 43.44905603 455.68371875 43.44905603 455.68667948 41.95445347 C455.630406 35.08629257 455.45116079 27.71253165 450.65234375 22.3203125 C450.183125 21.76601563 449.71390625 21.21171875 449.23046875 20.640625 C444.89432292 17.21247552 439.91696001 16.94389558 434.57328224 16.93359947 C433.90789344 16.92960341 433.24250464 16.92560735 432.55695254 16.92149019 C430.32952866 16.91052992 428.10235378 16.91371518 425.87490845 16.9168396 C424.26105512 16.91183594 422.64720431 16.90595994 421.03335702 16.89928687 C416.60028649 16.88348131 412.16727933 16.88005588 407.73418403 16.87863827 C402.95304035 16.8749452 398.17193147 16.85979018 393.39080811 16.84602356 C385.10772694 16.82374399 376.82465815 16.80873489 368.5415535 16.79865646 C356.56556165 16.78407424 344.58961289 16.75853868 332.61364631 16.73032518 C313.18368577 16.68484891 293.75371903 16.64823754 274.32373047 16.6171875 C255.44871939 16.58700539 236.57372349 16.55265666 217.69873047 16.51269531 C216.53537853 16.51023376 215.3720266 16.50777222 214.17342158 16.50523607 C208.33725745 16.49286154 202.5010935 16.48040499 196.66492963 16.46790767 C148.24408874 16.36432736 99.82322896 16.2752757 51.40234375 16.1953125 C51.40234375 10.9153125 51.40234375 5.6353125 51.40234375 0.1953125 C101.06023226 0.14969361 150.71811811 0.11429639 200.37602347 0.09318184 C206.23774289 0.09068041 212.09946228 0.08809177 217.96118164 0.08544922 C219.12815122 0.0849246 220.2951208 0.08439998 221.4974531 0.08385946 C240.39626956 0.07515533 259.29507387 0.05938531 278.19388311 0.04100691 C297.58380859 0.02230809 316.9737277 0.01119581 336.36366183 0.00713551 C348.32959384 0.00439042 360.29549149 -0.00428181 372.26141293 -0.02052043 C380.46535235 -0.03108708 388.66927399 -0.03428884 396.87321972 -0.03169025 C401.6074062 -0.03040847 406.34153258 -0.03238237 411.07570839 -0.04309845 C415.41175214 -0.05284163 419.74769547 -0.05331544 424.08374388 -0.04648529 C425.65051746 -0.0456413 427.21729735 -0.04816929 428.78405856 -0.05445386 C441.84892075 -0.10380273 451.99796989 0.65191234 462.08984375 9.5703125 C467.92041399 16.18879764 471.64665404 21.90955947 471.65961266 31.05939865 C471.66606155 32.21469849 471.67251044 33.36999834 471.67915475 34.56030726 C471.67605755 35.82002196 471.67296035 37.07973665 471.66976929 38.37762451 C471.67350754 39.7368626 471.67810977 41.09609854 471.68349993 42.45533109 C471.69572382 46.18501294 471.69547019 49.91460506 471.69311118 53.64430237 C471.69270286 57.66897969 471.70374369 61.69362831 471.71322632 65.71829224 C471.72983421 73.60161591 471.73533578 81.48490968 471.73645107 89.36824939 C471.7374017 95.77725491 471.74151272 102.18625058 471.74785233 108.59525299 C471.76546458 126.77053685 471.77469128 144.94579709 471.77319138 163.12108955 C471.77307151 164.59062288 471.77307151 164.59062288 471.77294922 166.08984375 C471.77286746 167.07073051 471.7727857 168.05161727 471.77270146 169.06222787 C471.77188868 184.95632006 471.79102427 200.85031746 471.81922595 216.74438223 C471.84796236 233.06878637 471.86176581 249.39314429 471.8600384 265.71757436 C471.85937473 274.88067328 471.8648567 284.04367284 471.8863945 293.20674896 C471.9046163 301.00901309 471.90894548 308.81113281 471.89537565 316.61340901 C471.88885087 320.59241424 471.88871085 324.57114252 471.90608215 328.55012131 C471.92184008 332.19714121 471.91892202 335.84366521 471.90151389 339.49067321 C471.89700529 341.42557839 471.91208006 343.36049912 471.92799318 345.29534411 C471.84208837 356.18318139 469.22243077 364.24662492 461.69140625 372.21484375 C455.47986968 377.58898887 448.32559832 380.32862137 440.17480469 380.30883789 C439.13402771 380.30876236 438.09325073 380.30868683 437.02093506 380.30860901 C435.90414368 380.30344772 434.78735229 380.29828644 433.63671875 380.29296875 C431.91391693 380.29084633 431.91391693 380.29084633 430.15631104 380.28868103 C426.48829544 380.28308393 422.8203409 380.27053194 419.15234375 380.2578125 C416.66536546 380.25279713 414.17838622 380.24823428 411.69140625 380.24414062 C405.59502856 380.23311545 399.49869651 380.21585277 393.40234375 380.1953125 C393.40234375 374.9153125 393.40234375 369.6353125 393.40234375 364.1953125 C394.87509766 364.19120361 396.34785156 364.18709473 397.86523438 364.18286133 C403.35223943 364.16101779 408.83853275 364.10667261 414.32519531 364.04272461 C416.6955684 364.01959034 419.06604362 364.00515969 421.43652344 363.99975586 C424.85285755 363.99043337 428.2675954 363.94936712 431.68359375 363.90234375 C432.73599243 363.9062764 433.78839111 363.91020905 434.87268066 363.91426086 C441.53191342 363.78350957 446.33519928 362.71381333 451.40234375 358.1953125 C460.31061816 344.40185535 456.11592309 318.65213902 456.40234375 307.1953125 C297.34234375 307.1953125 138.28234375 307.1953125 -25.59765625 307.1953125 C-27.67413243 332.64590185 -27.67413243 332.64590185 -19.16015625 359.1328125 C-14.66016883 362.75475359 -11.79581625 363.44589074 -5.98345566 363.45702553 C-4.98376887 363.46301962 -4.98376887 363.46301962 -3.96388638 363.46913481 C-1.72078377 363.48014233 0.52207351 363.47690317 2.76519775 363.4737854 C4.38557456 363.47878638 6.00594887 363.48466159 7.62631965 363.49133813 C12.0867119 363.50717611 16.54704123 363.5105709 21.00745821 363.51198673 C25.81454045 363.51567416 30.6215879 363.53082633 35.4286499 363.54460144 C43.75978482 363.56689878 52.09090741 363.58189717 60.42206573 363.59196854 C72.46758768 363.60654062 84.51306667 363.63207329 96.55856344 363.66029982 C116.10055437 363.70579459 135.64255147 363.74239829 155.18457031 363.7734375 C174.17025843 363.80361205 193.15593143 363.83795728 212.14160156 363.87792969 C213.31145294 363.88039124 214.48130431 363.88285278 215.68660572 363.88538893 C221.55527926 363.89776331 227.42395262 363.91021989 233.2926259 363.92271733 C281.9958442 364.02632532 330.69908131 364.11536762 379.40234375 364.1953125 C379.40234375 369.4753125 379.40234375 374.7553125 379.40234375 380.1953125 C330.39734375 380.6903125 330.39734375 380.6903125 280.40234375 381.1953125 C284.36234375 400.9953125 284.36234375 400.9953125 288.40234375 421.1953125 C288.40234375 422.8453125 288.40234375 424.4953125 288.40234375 426.1953125 C305.56234375 426.1953125 322.72234375 426.1953125 340.40234375 426.1953125 C340.40234375 445.9953125 340.40234375 465.7953125 340.40234375 486.1953125 C257.90234375 486.1953125 175.40234375 486.1953125 90.40234375 486.1953125 C90.40234375 466.3953125 90.40234375 446.5953125 90.40234375 426.1953125 C107.56234375 426.1953125 124.72234375 426.1953125 142.40234375 426.1953125 C142.73234375 422.8953125 143.06234375 419.5953125 143.40234375 416.1953125 C143.90575259 413.30034594 144.43556234 410.4370381 145.03125 407.5625 C145.18520737 406.7997879 145.33916473 406.03707581 145.49778748 405.25125122 C145.9822283 402.85664816 146.47339703 400.46348641 146.96484375 398.0703125 C147.29797585 396.42977877 147.6306618 394.78915439 147.96289062 393.1484375 C148.77090131 389.16299852 149.58494141 385.17883541 150.40234375 381.1953125 C149.56211764 381.19384594 148.72189154 381.19237938 147.85620403 381.19086838 C127.38146704 381.15376515 106.90689513 381.0947038 86.43229198 381.01140976 C76.53078641 380.97165452 66.62935991 380.93924418 56.7277832 380.92431641 C48.0943496 380.91128166 39.46109025 380.88427053 30.8277548 380.84069943 C26.25935246 380.81812558 21.6911647 380.80239937 17.12270164 380.80342865 C12.81585782 380.80417768 8.50948761 380.78613007 4.20276642 380.75414467 C2.62871526 380.74568022 1.05461077 380.74387208 -0.51945305 380.74950981 C-13.06920427 380.78844438 -23.32020533 379.36544913 -32.65234375 370.41796875 C-38.15438226 364.13150307 -40.71698172 357.86996841 -40.73187733 349.57452869 C-40.73633517 348.42259425 -40.74079301 347.27065981 -40.74538594 346.08381826 C-40.74520158 344.81759576 -40.74501722 343.55137327 -40.74482727 342.2467804 C-40.74812716 340.88855722 -40.751853 339.53033502 -40.75596875 338.17211407 C-40.7659825 334.43600614 -40.76970453 330.69991428 -40.77235806 326.96379483 C-40.77626293 322.93570023 -40.78584109 318.90761834 -40.79457092 314.87953186 C-40.81432942 305.1502628 -40.82440043 295.4209927 -40.83329871 285.69170859 C-40.83768232 281.1098677 -40.84304892 276.52802796 -40.84828758 271.94618797 C-40.86529869 256.71516949 -40.87979313 241.48415172 -40.88703632 226.25312519 C-40.88894621 222.30099296 -40.89086654 218.34886073 -40.89282227 214.39672852 C-40.89330601 213.41444844 -40.89378975 212.43216837 -40.89428815 211.42012223 C-40.90258946 195.5058325 -40.92792862 179.59161791 -40.96040294 163.67736099 C-40.99347223 147.33834008 -41.01148494 130.99935737 -41.01468056 114.66030282 C-41.0168457 105.48657997 -41.02559499 96.31296673 -41.05114174 87.1392765 C-41.07284688 79.32706151 -41.08090005 71.51498274 -41.07117496 63.702741 C-41.0666298 59.71779237 -41.06852884 55.73312482 -41.0879364 51.74821472 C-41.10556569 48.09685862 -41.10457268 44.4459887 -41.08903911 40.79462745 C-41.08554077 38.85490428 -41.10169111 36.91517602 -41.11864358 34.97552377 C-41.06578577 27.79935511 -40.18556254 22.44532581 -36.59765625 16.1953125 C-36.24024788 15.55177505 -35.8828395 14.90823761 -35.51460057 14.24519902 C-31.99969692 8.23458197 -25.32483271 3.65354488 -18.73298645 1.62010193 C-12.44307162 0.11065187 -6.44840487 -0.06491757 0 0 Z M135.90625 85.6328125 C124.33218672 97.47771969 120.52220512 113.86355213 119.96484375 130.0078125 C120.22605867 138.45027883 122.31167897 145.40123709 128.15234375 151.6328125 C134.03258332 156.94680678 140.29160176 160.29948717 148.40234375 160.1953125 C155.87997657 159.62570352 161.81308677 157.23953677 167.40234375 152.1953125 C174.38377422 143.70397951 176.42116767 136.12219908 175.40234375 125.1953125 C173.17817286 116.17225559 167.71155083 109.67705543 161.52734375 103.0078125 C155.17079261 95.9802243 150.5374581 87.68183949 146.40234375 79.1953125 C141.60400945 79.1953125 139.29953907 82.47166984 135.90625 85.6328125 Z M358.40234375 112.1953125 C347.34556352 127.12809191 347.34556352 127.12809191 344.9453125 144.87109375 C345.17154297 146.02158203 345.17154297 146.02158203 345.40234375 147.1953125 C353.15466142 150.27424718 359.88383005 151.65934241 367.90234375 148.7578125 C371.16585645 147.55094424 371.16585645 147.55094424 372.40234375 146.1953125 C374.54035588 136.08158556 370.19890883 129.18292602 364.98046875 120.98046875 C362.94387954 117.91572068 360.76690824 115.01842572 358.40234375 112.1953125 Z M49.40234375 114.1953125 C49.40234375 119.4753125 49.40234375 124.7553125 49.40234375 130.1953125 C44.12234375 130.1953125 38.84234375 130.1953125 33.40234375 130.1953125 C33.40234375 125.2453125 33.40234375 120.2953125 33.40234375 115.1953125 C30.36018586 118.23747039 27.70739463 121.12461602 25.08984375 124.5078125 C24.37183594 125.41144531 23.65382813 126.31507813 22.9140625 127.24609375 C20.98290911 131.01358939 21.24345427 133.28992194 22.40234375 137.1953125 C23.78528146 141.36749718 25.32334769 145.46883358 26.90234375 149.5703125 C27.31871094 150.67503906 27.73507813 151.77976563 28.1640625 152.91796875 C29.69826092 157.90107039 29.69826092 157.90107039 32.40234375 162.1953125 C33.81804498 162.28182861 35.23793875 162.30236154 36.65625 162.29296875 C37.51025391 162.28974609 38.36425781 162.28652344 39.24414062 162.28320312 C40.14197266 162.27482422 41.03980469 162.26644531 41.96484375 162.2578125 C42.86654297 162.25330078 43.76824219 162.24878906 44.69726562 162.24414062 C46.93235689 162.23231475 49.16731812 162.2158347 51.40234375 162.1953125 C53.10774528 158.21101159 54.76774531 154.2090915 56.40234375 150.1953125 C56.68013672 149.5161377 56.95792969 148.83696289 57.24414062 148.13720703 C58.10357539 146.01639097 58.94268247 143.88848584 59.77734375 141.7578125 C60.0520752 141.08427734 60.32680664 140.41074219 60.60986328 139.71679688 C62.12934102 135.77383584 62.99437487 133.16921964 61.40234375 129.1953125 C59.71701772 126.47346269 57.83816866 123.93059214 55.90234375 121.3828125 C55.39058594 120.68994141 54.87882812 119.99707031 54.3515625 119.28320312 C53.06694496 117.56303583 51.73834484 115.87588349 50.40234375 114.1953125 C50.07234375 114.1953125 49.74234375 114.1953125 49.40234375 114.1953125 Z M233.40234375 145.1953125 C233.40234375 151.1353125 233.40234375 157.0753125 233.40234375 163.1953125 C239.67234375 163.1953125 245.94234375 163.1953125 252.40234375 163.1953125 C252.40234375 168.1453125 252.40234375 173.0953125 252.40234375 178.1953125 C246.13234375 178.1953125 239.86234375 178.1953125 233.40234375 178.1953125 C233.40234375 183.8053125 233.40234375 189.4153125 233.40234375 195.1953125 C242.31234375 195.1953125 251.22234375 195.1953125 260.40234375 195.1953125 C260.40234375 200.4753125 260.40234375 205.7553125 260.40234375 211.1953125 C251.49234375 211.1953125 242.58234375 211.1953125 233.40234375 211.1953125 C233.40234375 216.8053125 233.40234375 222.4153125 233.40234375 228.1953125 C239.67234375 228.1953125 245.94234375 228.1953125 252.40234375 228.1953125 C252.40234375 233.1453125 252.40234375 238.0953125 252.40234375 243.1953125 C246.13234375 243.1953125 239.86234375 243.1953125 233.40234375 243.1953125 C233.40234375 248.8053125 233.40234375 254.4153125 233.40234375 260.1953125 C242.31234375 260.1953125 251.22234375 260.1953125 260.40234375 260.1953125 C260.40234375 265.4753125 260.40234375 270.7553125 260.40234375 276.1953125 C251.49234375 276.1953125 242.58234375 276.1953125 233.40234375 276.1953125 C233.40234375 281.1453125 233.40234375 286.0953125 233.40234375 291.1953125 C248.58234375 291.1953125 263.76234375 291.1953125 279.40234375 291.1953125 C279.40234375 243.0153125 279.40234375 194.8353125 279.40234375 145.1953125 C264.22234375 145.1953125 249.04234375 145.1953125 233.40234375 145.1953125 Z M345.40234375 164.1953125 C345.40234375 206.1053125 345.40234375 248.0153125 345.40234375 291.1953125 C354.31234375 291.1953125 363.22234375 291.1953125 372.40234375 291.1953125 C372.40234375 249.2853125 372.40234375 207.3753125 372.40234375 164.1953125 C370.09234375 164.5253125 367.78234375 164.8553125 365.40234375 165.1953125 C363.23704948 165.28295536 361.06940464 165.32557236 358.90234375 165.3203125 C357.84015625 165.32289063 356.77796875 165.32546875 355.68359375 165.328125 C352.23859137 165.18868443 348.81551462 164.68290834 345.40234375 164.1953125 Z M136.40234375 175.1953125 C135.35480234 188.69529341 134.31085151 202.19553902 133.27313232 215.69627857 C132.79108191 221.96590633 132.30748954 228.23540703 131.8203125 234.50463867 C131.34978759 240.56032983 130.88339253 246.61632646 130.4197998 252.67255211 C130.24265078 254.97738567 130.06404058 257.28210743 129.88391113 259.58670998 C129.63091963 262.82680539 129.38323448 266.06726765 129.13671875 269.30786133 C129.06191284 270.25014084 128.98710693 271.19242035 128.91003418 272.16325378 C128.43067583 278.56251562 128.40234375 284.73614971 128.40234375 291.1953125 C141.60234375 291.1953125 154.80234375 291.1953125 168.40234375 291.1953125 C168.40234375 283.8071171 168.25031989 276.64334541 167.66796875 269.30786133 C167.58994019 268.28213013 167.51191162 267.25639893 167.43151855 266.19958496 C167.17574816 262.85018759 166.91409896 259.50127825 166.65234375 256.15234375 C166.47261664 253.81396745 166.29326039 251.47556261 166.11425781 249.13713074 C165.64448292 243.01312821 165.16970255 236.88952389 164.69384766 230.76599121 C164.20821537 224.50503595 163.72736093 218.24371391 163.24609375 211.98242188 C162.30282959 199.71968906 161.35383064 187.45741004 160.40234375 175.1953125 C152.48234375 175.1953125 144.56234375 175.1953125 136.40234375 175.1953125 Z M27.40234375 178.1953125 C27.40234375 193.0453125 27.40234375 207.8953125 27.40234375 223.1953125 C37.63234375 223.1953125 47.86234375 223.1953125 58.40234375 223.1953125 C58.40234375 208.3453125 58.40234375 193.4953125 58.40234375 178.1953125 C48.17234375 178.1953125 37.94234375 178.1953125 27.40234375 178.1953125 Z M27.40234375 239.1953125 C27.40234375 256.3553125 27.40234375 273.5153125 27.40234375 291.1953125 C37.63234375 291.1953125 47.86234375 291.1953125 58.40234375 291.1953125 C58.40234375 274.0353125 58.40234375 256.8753125 58.40234375 239.1953125 C48.17234375 239.1953125 37.94234375 239.1953125 27.40234375 239.1953125 Z M167.40234375 380.1953125 C161.33684279 403.03684499 161.33684279 403.03684499 158.40234375 426.1953125 C196.02234375 426.1953125 233.64234375 426.1953125 272.40234375 426.1953125 C269.55737104 410.83245986 266.62106295 395.48422868 263.40234375 380.1953125 C231.72234375 380.1953125 200.04234375 380.1953125 167.40234375 380.1953125 Z M106.40234375 442.1953125 C106.40234375 451.4353125 106.40234375 460.6753125 106.40234375 470.1953125 C178.34234375 470.1953125 250.28234375 470.1953125 324.40234375 470.1953125 C324.40234375 460.9553125 324.40234375 451.7153125 324.40234375 442.1953125 C252.46234375 442.1953125 180.52234375 442.1953125 106.40234375 442.1953125 Z " fill="#000000" transform="translate(40.59765625,12.8046875)"/>
<path d="M0 0 C5.28 0 10.56 0 16 0 C16 22.77 16 45.54 16 69 C10.72 69 5.44 69 0 69 C0 46.23 0 23.46 0 0 Z " fill="#000000" transform="translate(460,167)"/>
<path d="M0 0 C5.28 0 10.56 0 16 0 C16 5.28 16 10.56 16 16 C10.72 16 5.44 16 0 16 C0 10.72 0 5.44 0 0 Z " fill="#000000" transform="translate(248,340)"/>
<path d="M0 0 C5.28 0 10.56 0 16 0 C16.020625 2.454375 16.04125 4.90875 16.0625 7.4375 C16.071604 8.21150146 16.08070801 8.98550293 16.09008789 9.78295898 C16.09724913 11.52221717 16.05024702 13.26145304 16 15 C15 16 15 16 11.62109375 16.09765625 C10.22652508 16.09191424 8.83198403 16.07890228 7.4375 16.0625 C4.983125 16.041875 2.52875 16.02125 0 16 C0 10.72 0 5.44 0 0 Z " fill="#000000" transform="translate(460,137)"/>
<path d="M0 0 C5.28 0 10.56 0 16 0 C16.020625 2.454375 16.04125 4.90875 16.0625 7.4375 C16.071604 8.21150146 16.08070801 8.98550293 16.09008789 9.78295898 C16.09724913 11.52221717 16.05024702 13.26145304 16 15 C15 16 15 16 11.62109375 16.09765625 C10.22652508 16.09191424 8.83198403 16.07890228 7.4375 16.0625 C4.983125 16.041875 2.52875 16.02125 0 16 C0 10.72 0 5.44 0 0 Z " fill="#000000" transform="translate(460,107)"/>
</svg>
