<?xml version="1.0" encoding="UTF-8"?>
<svg version="1.1" xmlns="http://www.w3.org/2000/svg" width="512" height="512">
<path d="M0 0 C0.71697975 -0.00235223 1.43395949 -0.00470446 2.17266589 -0.00712797 C4.59965374 -0.01383884 7.0265883 -0.01335912 9.45358467 -0.01294994 C11.2013762 -0.01624726 12.94916697 -0.01997254 14.69695675 -0.02409142 C19.51898404 -0.03413438 24.34099888 -0.03783189 29.16303515 -0.04048073 C34.35604112 -0.04437692 39.54903717 -0.05395563 44.74203682 -0.0626936 C57.29156941 -0.08247607 69.84110283 -0.09252588 82.39064711 -0.10142139 C88.2945932 -0.10580084 94.19853838 -0.11116848 100.10248375 -0.11641026 C119.71783131 -0.13342332 139.3331783 -0.14791917 158.9485321 -0.155159 C164.04129093 -0.15706901 169.13404974 -0.15898933 174.22680855 -0.16094494 C175.49264897 -0.16142868 176.75848938 -0.16191242 178.0626886 -0.16241082 C198.58464203 -0.17071738 219.10653728 -0.19606452 239.62846528 -0.22852562 C260.67842009 -0.26155165 281.72834529 -0.27960366 302.77832615 -0.28280324 C314.60507127 -0.28497233 326.43173153 -0.29377932 338.25845146 -0.31926441 C348.32710419 -0.34091051 358.39565146 -0.34905192 368.46432482 -0.33929763 C373.60504313 -0.33473537 378.74554357 -0.33675043 383.88623238 -0.35605907 C388.58779482 -0.37356652 393.28897844 -0.37279499 397.99054421 -0.35716178 C399.69579786 -0.3547667 401.4010769 -0.35920657 403.10629152 -0.37099043 C405.41630928 -0.38597117 407.72496056 -0.37653478 410.03494263 -0.36076355 C411.32035096 -0.36174036 412.60575929 -0.36271717 413.9301194 -0.36372358 C417.14331245 0.13422108 417.14331245 0.13422108 419.5516969 1.93029433 C421.48296448 4.6045408 421.78116696 6.72940565 421.60180855 10.00629139 C420.74410069 13.98700581 418.41058642 16.83933937 415.95581245 20.00922108 C415.14648262 21.10278919 415.14648262 21.10278919 414.32080269 22.21844959 C413.18093236 23.75805527 412.03371495 25.29224544 410.87964058 26.8212328 C408.64670363 29.79576102 406.47786718 32.813729 404.3100605 35.83588123 C402.68917714 38.09490571 401.06009688 40.34779113 399.4284687 42.59906483 C396.16197893 47.1073446 392.90209271 51.62036673 389.64331245 56.13422108 C388.56000884 57.63424254 387.4766755 59.13424253 386.39331245 60.63422108 C385.85706245 61.37672108 385.32081245 62.11922108 384.76831245 62.88422108 C335.47664579 131.13422108 286.18497912 199.38422108 236.89331245 267.63422108 C236.35641792 268.37776844 235.81952339 269.1213158 235.26635933 269.88739491 C234.19013134 271.37724542 233.1133147 272.86667089 232.03589058 274.35565662 C229.21370408 278.25754327 226.40414854 282.16775774 223.61206245 286.09125233 C223.0313398 286.90400623 222.45061714 287.71676014 221.85229683 288.55414295 C220.74561061 290.10350365 219.64250648 291.65543185 218.54370308 293.21039295 C211.19719075 303.4729345 211.19719075 303.4729345 207.08081245 304.79828358 C206.12174995 304.77894764 206.12174995 304.77894764 205.14331245 304.75922108 C204.50393745 304.7721117 203.86456245 304.78500233 203.20581245 304.79828358 C197.31307983 302.90100224 193.57386036 295.80142806 190.14331245 290.94672108 C188.98718562 289.32814351 187.83093209 287.70965644 186.67456245 286.09125233 C186.08803902 285.26705799 185.50151558 284.44286366 184.8972187 283.59369373 C182.16392224 279.76083898 179.40300986 275.94808601 176.64331245 272.13422108 C175.55983036 270.63432852 174.47649742 269.13432822 173.39331245 267.63422108 C172.58893745 266.52047108 172.58893745 266.52047108 171.76831245 265.38422108 C122.47664579 197.13422108 73.18497912 128.88422108 23.89331245 60.63422108 C23.35698189 59.89164051 22.82065132 59.14905994 22.26806831 58.38397694 C21.18542991 56.88487658 20.10291026 55.38569046 19.02050972 53.88641834 C16.30251423 50.1219394 13.58243178 46.35900204 10.8581562 42.59906483 C8.156163 38.86917433 5.46304383 35.13299355 2.77368355 31.3939867 C1.08777383 29.05724212 -0.60910739 26.7286918 -2.3059063 24.39984608 C-3.40662597 22.87413564 -4.50690255 21.3481054 -5.60668755 19.82172108 C-6.12045952 19.1223241 -6.63423149 18.42292713 -7.16357231 17.70233631 C-11.68477493 11.38718978 -11.68477493 11.38718978 -11.85668755 7.13422108 C-9.06064957 0.21069847 -7.18289173 0.0099971 0 0 Z " fill="#52B0F0" transform="translate(50.85668754577637,103.86577892303467)"/>
</svg>
