<svg id="Layer_1" data-name="Layer 1" xmlns="http://www.w3.org/2000/svg" viewBox="0 0 1209.01 418.68"><defs><style>.cls-1{fill:none;}.cls-2{fill:#231f20;}</style></defs><rect class="cls-1" width="1209.01" height="418.68"/><path class="cls-2" d="M167,156.88a71,71,0,0,0,32.1,14.73v-62.8l12.79-7.38,12.78,7.38v62.8a71.09,71.09,0,0,0,32.11-14.73L280,170.31a96.92,96.92,0,0,1-136.33,0Zm28.22,160.37A96.92,96.92,0,0,0,127,199.19v26.87a71.06,71.06,0,0,1,28.82,20.43l-54.39,31.4v14.77L114.22,300l54.38-31.4a71,71,0,0,1,3.29,35.17Zm101.5-118.06a96.93,96.93,0,0,0-68.16,118.06l23.27-13.44a71.1,71.1,0,0,1,3.29-35.17L309.46,300l12.78-7.38V277.89l-54.39-31.4a71.13,71.13,0,0,1,28.82-20.43ZM720.9,170.31h12.61V277.89H720.9v-21a51,51,0,0,1-43.34,23.19,55.95,55.95,0,0,1,0-111.89,51,51,0,0,1,43.34,23.19Zm0,53.79a43.34,43.34,0,1,0-43.34,43.34A43.29,43.29,0,0,0,720.9,224.1Zm147.85-90.52-12.6,7.23v29.5H792.06V133.58l-12.6,7.23v29.5H762.55v12.14h16.91V253.3a24.34,24.34,0,0,0,24.44,24.59h18.75v-12.6H803.9a12,12,0,0,1-11.84-12.14v-70.7h64.09V253.3a24.3,24.3,0,0,0,24.28,24.59h18.91v-12.6H880.43a12,12,0,0,1-11.68-12.14v-70.7h30.59V170.31H868.75ZM582.28,214.11v63.78h12.6V214.11c0-26.8-20.57-46-46-46-16.45,0-31.43,8.45-39.73,25.67-8.45-17.06-23.28-25.67-39.57-25.67-25.38,0-46,19.15-46,46v63.78h12.61V214.11c0-19.84,14.93-33.35,33.35-33.35S503,194.27,503,214.11v63.78h12.6V214.11c0-19.84,14.93-33.35,33.35-33.35S582.28,194.27,582.28,214.11Zm520.54-33.35h4.76v-12.6h-4.76c-25.38,0-46,19.15-46,46v63.78h12.61V214.11C1069.47,194.27,1084.4,180.76,1102.82,180.76Zm-72.54,43.34c0,1.23-.16,2.62-.16,3.85H930.4c2,22.16,21.4,39.49,46.55,39.49,15.52,0,27.81-6.6,35.81-16.75l11.06,6.3c-10.3,14-26.74,23.06-46.87,23.06-33.51,0-58.56-25.05-58.56-56a55.95,55.95,0,0,1,111.89,0Zm-99.23-8.29h86.56c-4-20-22.28-35.05-43.28-35.05S935.05,195.81,931.05,215.81Z"/></svg>