<?xml version="1.0" encoding="UTF-8"?>
<svg version="1.1" xmlns="http://www.w3.org/2000/svg" width="512" height="512">
<path d="M0 0 C0.68126455 -0.00175304 1.36252909 -0.00350607 2.06443802 -0.00531223 C4.34590012 -0.00996194 6.6272982 -0.00750939 8.90876293 -0.00507832 C10.5615725 -0.00694681 12.21438163 -0.00924766 13.86719006 -0.01194364 C18.40829459 -0.01806333 22.9493807 -0.01792784 27.49048841 -0.01674926 C32.38835425 -0.0165453 37.28621417 -0.02206359 42.18407726 -0.02680683 C51.77957849 -0.03511483 61.37507358 -0.03786174 70.97057811 -0.03841921 C78.7697492 -0.03889429 86.56891827 -0.04094864 94.36808872 -0.04411983 C116.47739878 -0.05292675 138.58670399 -0.05753914 160.69601581 -0.05678936 C161.88804411 -0.0567494 163.0800724 -0.05670945 164.30822277 -0.05666828 C165.50170549 -0.0566274 166.69518821 -0.05658652 167.92483708 -0.0565444 C187.26946432 -0.0561379 206.6140721 -0.06570838 225.95869372 -0.07980665 C245.81889646 -0.09416653 265.6790897 -0.10107705 285.53929776 -0.10021287 C296.69038794 -0.09988077 307.84145771 -0.10263354 318.99254322 -0.11339092 C328.4863513 -0.12249081 337.98012974 -0.12467537 347.47394029 -0.1178815 C352.31753005 -0.11461374 357.16106289 -0.11456887 362.00464725 -0.12323475 C366.4403774 -0.13108929 370.87600541 -0.12967899 375.31173303 -0.12095062 C376.91466463 -0.11941333 378.51760381 -0.1212404 380.12052647 -0.12681069 C392.02996011 -0.16544921 402.67006464 -0.15601617 412.02428722 8.12863445 C415.95886414 13.08432777 418.14551588 17.63844354 418.1585083 24.02008629 C418.16296614 25.03479396 418.16742399 26.04950162 418.17201692 27.09495801 C418.17174037 28.77206372 418.17174037 28.77206372 418.17145824 30.48305035 C418.17513493 31.66828283 418.17881162 32.85351532 418.18259972 34.07466394 C418.19172845 37.37031291 418.19633666 40.66591207 418.19898903 43.96156895 C418.20289181 47.51385753 418.21247018 51.06613169 418.2212019 54.61841106 C418.24096724 63.20013955 418.25103268 71.78186921 418.25992969 80.36361477 C418.26431254 84.40465129 418.26967936 88.4456865 418.27491856 92.48672199 C418.29193103 105.91967751 418.30642524 119.35263221 418.3136673 132.78559685 C418.3155772 136.2717689 418.31749753 139.75794094 418.31945324 143.24411297 C418.31993698 144.11058688 418.32042072 144.97706079 418.32091912 145.86979149 C418.32921953 159.90629925 418.35455654 173.94272179 418.38703392 187.97919234 C418.42010393 202.38924579 418.43811601 216.79925594 418.44131154 231.20934755 C418.44347671 239.30044419 418.45222633 247.39141657 418.47777271 255.48247623 C418.49947895 262.37321629 418.50753056 269.2638019 418.49780593 276.15457227 C418.49326093 279.66954248 418.4951586 283.18419402 418.51456738 286.69912052 C418.53544281 290.51264601 418.52521457 294.32573251 418.51203442 298.13930035 C418.52300366 299.24621721 418.53397291 300.35313407 418.54527456 301.49359387 C418.47695344 309.67651655 416.76218653 315.96776888 410.77428722 321.94113445 C410.25350597 322.48382977 409.73272472 323.02652508 409.19616222 323.5856657 C402.32045223 328.47038773 395.3275044 328.55948389 387.20026684 328.50958538 C386.02497974 328.51426535 384.84969264 328.51894532 383.63879079 328.52376711 C380.39415097 328.53363011 377.14985053 328.53012477 373.90521944 328.52080846 C370.39941957 328.51400251 366.89366452 328.52450668 363.38787365 328.53274822 C356.52783554 328.54607006 349.66789603 328.54321512 342.80785409 328.5345103 C337.23313649 328.52772971 331.65844648 328.52681865 326.08372593 328.53008175 C325.28972479 328.53054145 324.49572365 328.53100115 323.67766186 328.53147478 C322.06460378 328.53243396 320.45154571 328.5334066 318.83848765 328.53439255 C303.72315584 328.54294147 288.60787867 328.53311927 273.49255582 328.51699145 C260.52222998 328.50358094 247.55198467 328.50592335 234.58166027 328.51974773 C219.51503508 328.53579896 204.4484577 328.54212572 189.38182515 328.53291094 C187.77568385 328.5319553 186.16954254 328.53101219 184.56340122 328.53008175 C183.77316504 328.52961892 182.98292885 328.5291561 182.16874612 328.52867924 C176.59903416 328.52608856 171.02935253 328.53046187 165.45964527 328.53752041 C158.67471097 328.54593018 151.88988081 328.543666 145.10495845 328.52767818 C141.64304459 328.51978956 138.18130443 328.5167139 134.71939182 328.52662563 C130.96853866 328.53478999 127.21817822 328.5245808 123.46735668 328.50958538 C122.37067569 328.51627755 121.27399469 328.52296971 120.14408094 328.52986467 C110.91635817 328.45801569 110.91635817 328.45801569 107.02428722 325.12863445 C105.1448414 322.34664903 104.77029905 320.12612923 104.74962902 316.80661297 C104.74009701 315.96216122 104.73056499 315.11770947 104.72074413 314.24766827 C104.72211124 312.89130512 104.72211124 312.89130512 104.72350597 311.5075407 C104.71922085 310.57062893 104.71493572 309.63371716 104.71052074 308.66841412 C104.70478342 306.68893523 104.70427278 304.70943526 104.7086134 302.72995281 C104.71177214 299.70557881 104.68831094 296.68218435 104.6629591 293.65793133 C104.66068589 291.73280235 104.65998271 289.80767075 104.66100597 287.8825407 C104.65179623 286.98032284 104.64258648 286.07810497 104.63309765 285.14854717 C104.6682302 280.36776542 104.77339846 276.92172091 108.02428722 273.12863445 C111.09050686 271.23474135 113.40650301 270.87940697 116.98304653 270.8825388 C117.98726186 270.8785567 118.99147719 270.8745746 120.02612329 270.87047184 C121.12728313 270.87629752 122.22844298 270.8821232 123.36297131 270.88812542 C125.11994182 270.88556215 125.11994182 270.88556215 126.91240668 270.88294709 C130.16427863 270.88021985 133.41599163 270.88648014 136.66784477 270.89650321 C140.174283 270.9051323 143.68071368 270.90221793 147.18715954 270.90069866 C153.26253806 270.89964947 159.33787366 270.90592967 165.41324139 270.91717434 C174.19721956 270.93342171 182.98117695 270.93863656 191.76516852 270.94115032 C206.01626673 270.94552862 220.26734206 270.9588414 234.51842785 270.97775555 C248.36282774 270.99611085 262.20722139 271.01024613 276.05163097 271.01877117 C276.91356485 271.01930717 277.77549872 271.01984316 278.66355181 271.0203954 C285.4043435 271.02455419 292.14513532 271.02846806 298.8859272 271.03230453 C331.93206821 271.0511752 364.97815195 271.09141102 398.02428722 271.12863445 C397.69428722 189.28863445 397.36428722 107.44863445 397.02428722 23.12863445 C392.80236648 21.01767408 390.93150507 20.8774725 386.31193829 20.87415886 C385.63486019 20.87095238 384.9577821 20.8677459 384.26018649 20.86444226 C381.98090652 20.85611038 379.70188715 20.86207757 377.42260265 20.86793804 C375.77620409 20.86491882 374.12980693 20.86103049 372.48341227 20.85634547 C367.95092012 20.84602736 363.41850674 20.84825696 358.88600802 20.85252607 C354.00114851 20.85498637 349.11630831 20.84598787 344.2314558 20.83848858 C334.658742 20.82572055 325.08605623 20.82395047 315.51333535 20.82628884 C307.73552425 20.82806966 299.95772169 20.82632746 292.17991161 20.8220644 C291.07423933 20.82146921 289.96856705 20.82087402 288.82938954 20.8202608 C286.5834556 20.81904909 284.33752166 20.81783495 282.09158772 20.81661842 C261.01611129 20.80573497 239.94065085 20.8079093 218.86517352 20.81400327 C199.56876173 20.8191743 180.27240039 20.80791349 160.97599858 20.78890505 C141.17803059 20.7695515 121.38008649 20.7612662 101.58210897 20.7650283 C90.4607623 20.76694398 79.3394586 20.76441714 68.21811962 20.75031376 C58.75155466 20.73843066 49.28505911 20.73696049 39.81849325 20.74910393 C34.98563885 20.75501401 30.15291161 20.75603354 25.3200655 20.74410152 C20.89989039 20.73331486 16.47994971 20.73625925 12.0597859 20.75036321 C10.45688407 20.75303016 8.85396429 20.75058159 7.25107998 20.74262735 C5.07931188 20.73259426 2.90837024 20.74087953 0.73663616 20.75390434 C-0.47174396 20.75384933 -1.68012408 20.75379431 -2.92512178 20.75373763 C-6.2561806 21.16310203 -7.66592747 21.72013516 -9.97571278 24.12863445 C-10.38230015 26.72986832 -10.53003251 28.91784425 -10.50574207 31.52170086 C-10.51447346 32.27155758 -10.52320484 33.0214143 -10.53220081 33.79399395 C-10.55660278 36.27297078 -10.55316484 38.7511152 -10.54993153 41.23019695 C-10.56237119 42.94988718 -10.57670389 44.66956467 -10.5928545 46.38922405 C-10.63092613 50.91638078 -10.64607697 55.44331855 -10.65564442 59.97061443 C-10.67537177 67.22471057 -10.73209183 74.47863929 -10.78440762 81.73255825 C-10.79980922 84.27252688 -10.8069551 86.81241266 -10.81255054 89.35241985 C-10.81956336 90.89973269 -10.82666401 92.44704514 -10.83386707 93.99435711 C-10.83333836 94.70605556 -10.83280964 95.41775402 -10.8322649 96.1510191 C-10.86249672 101.0154184 -10.86249672 101.0154184 -11.97571278 102.12863445 C-14.7998766 102.25526536 -17.58866071 102.31383993 -20.41321278 102.31613445 C-21.20276356 102.32838055 -21.99231434 102.34062664 -22.8057909 102.35324383 C-24.86378712 102.35850725 -26.92133287 102.25069731 -28.97571278 102.12863445 C-31.42440128 99.67994595 -31.22531567 98.32069225 -31.2689867 94.97743511 C-31.26808033 94.26162777 -31.26717396 93.54582043 -31.26624012 92.80832195 C-31.27295734 92.05356075 -31.27967457 91.29879955 -31.28659534 90.5211668 C-31.30565496 88.01525633 -31.30950477 85.50961301 -31.31165028 83.00363445 C-31.31807725 81.25924857 -31.32480553 79.51486377 -31.3318224 77.77048016 C-31.34381825 74.10517159 -31.34750131 70.43995737 -31.34631824 66.77463055 C-31.34611596 62.09859631 -31.37331288 57.4231761 -31.40786266 52.7472868 C-31.43021638 49.13879965 -31.43415306 45.53045764 -31.43309879 41.92190838 C-31.43544607 40.19967838 -31.44421997 38.47744385 -31.45976353 36.7552824 C-31.62301679 16.78188441 -31.62301679 16.78188441 -24.79211903 8.47238445 C-24.04832996 7.86394695 -23.3045409 7.25550945 -22.53821278 6.62863445 C-21.42639637 5.6850407 -21.42639637 5.6850407 -20.29211903 4.72238445 C-14.0617335 0.43571111 -7.39216023 0.00429999 0 0 Z M186.02428722 287.12863445 C183.21822036 290.29677446 183.02428722 291.84999639 183.02428722 296.12863445 C183.76536468 300.38982985 185.537718 302.51370753 189.02428722 305.12863445 C192.55886225 306.61687657 193.95098441 306.15264744 197.64928722 304.94113445 C201.71679832 302.82855003 201.71679832 302.82855003 204.02428722 299.12863445 C204.62041033 294.50868037 204.75441587 291.51602187 201.96178722 287.69113445 C196.59799373 283.01208056 191.81139411 283.18287976 186.02428722 287.12863445 Z " fill="#000000" transform="translate(93.97571277618408,58.871365547180176)"/>
<path d="M0 0 C1.22233337 -0.00571014 2.44466675 -0.01142029 3.70404053 -0.01730347 C5.05059804 -0.01854866 6.39715567 -0.01967379 7.74371338 -0.02069092 C9.16825488 -0.0253226 10.59279515 -0.03034773 12.01733398 -0.03573608 C15.88115488 -0.04882872 19.74495842 -0.05529895 23.60879803 -0.05974674 C26.02556019 -0.06268264 28.44231766 -0.06678843 30.85907745 -0.07125092 C38.42868901 -0.08491782 45.99828978 -0.09458832 53.56791282 -0.09845281 C62.29081909 -0.10293118 71.01356848 -0.12047219 79.73642707 -0.1494534 C86.48905751 -0.17110592 93.24164394 -0.181159 99.99430871 -0.18249393 C104.02267259 -0.18353943 108.05088883 -0.18939283 112.079216 -0.20731354 C115.87137276 -0.22385607 119.66327187 -0.22591998 123.45545197 -0.21717453 C124.84170728 -0.21640744 126.22797681 -0.22070332 127.61419678 -0.23063278 C144.54426882 -0.34472168 144.54426882 -0.34472168 151.07281494 4.85919189 C151.51625244 5.44700439 151.95968994 6.03481689 152.41656494 6.64044189 C152.88062744 7.22825439 153.34468994 7.81606689 153.82281494 8.42169189 C155.70202547 11.37473701 156.04225401 13.91286956 156.04799271 17.31908131 C156.05183385 18.17478617 156.055675 19.03049104 156.05963254 19.91212636 C156.05876606 20.85257745 156.05789958 21.79302854 156.05700684 22.76197815 C156.05997796 23.76077836 156.06294908 24.75957857 156.06601024 25.78864545 C156.07471424 29.15111788 156.07620692 32.51355478 156.07769775 35.8760376 C156.0823247 38.28050818 156.08734919 40.68497803 156.09274292 43.08944702 C156.1058803 49.63285115 156.11235099 56.17624786 156.11675358 62.71966195 C156.11951592 66.80512068 156.12375325 70.89057704 156.12825775 74.97603416 C156.14045039 86.28670891 156.15074976 97.59738176 156.15413284 108.90806293 C156.15446219 109.99398797 156.15446219 109.99398797 156.15479819 111.10185088 C156.15501647 111.82753608 156.15523475 112.55322128 156.15545964 113.30089694 C156.15590311 114.77141909 156.15634967 116.24194123 156.15679932 117.71246338 C156.15713146 118.80660876 156.15713146 118.80660876 156.15747032 119.92285808 C156.16141847 131.74268608 156.17887304 143.56245242 156.20215884 155.3822566 C156.22587114 167.51645617 156.23833464 179.6506248 156.23950076 191.78484792 C156.24041758 198.59818484 156.2461717 205.41144144 156.26432037 212.22475624 C156.28132891 218.632643 156.28297488 225.04041794 156.27418137 231.4483223 C156.27340898 233.80175497 156.27778009 236.15519572 156.28763962 238.50860786 C156.3003002 241.71857334 156.29451408 244.9279934 156.28405762 248.13795471 C156.29614222 249.5385931 156.29614222 249.5385931 156.30847096 250.96752721 C156.25807926 257.57081787 154.92545581 261.68513084 150.66656494 266.89044189 C143.81143221 272.49918686 135.18613326 271.43197419 126.77056885 271.4151001 C125.33587886 271.41945211 123.9011912 271.42463689 122.46650696 271.43058777 C118.58418322 271.443937 114.70195709 271.44456096 110.81961489 271.44202447 C107.57178005 271.4409519 104.32396473 271.44584546 101.07613409 271.45062989 C93.40997368 271.46171116 85.74386228 271.46217038 78.07769775 271.45611572 C70.18478385 271.45007756 62.29204828 271.46238607 54.3991648 271.48368579 C47.60826951 271.50133382 40.81743082 271.50729808 34.02651346 271.50404805 C29.9769527 271.50224001 25.92751915 271.50482317 21.87797928 271.51876259 C18.06772345 271.53138844 14.25774445 271.52935223 10.4474926 271.5163517 C9.05479143 271.51399661 7.66207049 271.51668206 6.26939201 271.52497482 C-11.21923136 271.62154526 -11.21923136 271.62154526 -16.69513512 266.68852711 C-19.76346011 263.1289225 -21.20667781 260.64059188 -21.21765614 256.02238083 C-21.22211398 255.15473343 -21.22657182 254.28708602 -21.23116475 253.39314628 C-21.23098039 252.43421855 -21.23079603 251.47529083 -21.23060608 250.48730469 C-21.23428277 249.47302469 -21.23795946 248.4587447 -21.24174756 247.41372895 C-21.25281797 243.99287564 -21.25663391 240.57205266 -21.26043701 237.15118408 C-21.2666991 234.70745242 -21.27334567 232.26372171 -21.28034973 229.81999207 C-21.2996021 222.47034505 -21.31018164 215.1207061 -21.31907752 207.77104127 C-21.32345922 204.31102621 -21.32882635 200.85101269 -21.33406639 197.39099884 C-21.35107988 185.89078463 -21.36557425 174.39057139 -21.37281513 162.89034653 C-21.37472507 159.9051895 -21.37664539 156.92003248 -21.37860107 153.93487549 C-21.37908481 153.19291728 -21.37956855 152.45095906 -21.38006695 151.68651727 C-21.38836799 139.66614422 -21.41370557 127.64587066 -21.44618175 115.62554106 C-21.47924359 103.28797137 -21.49726311 90.95045226 -21.50045937 78.61283803 C-21.50262534 71.68432145 -21.51138645 64.75594994 -21.53692055 57.8274765 C-21.56088273 51.31041689 -21.56445871 44.79357162 -21.55415916 38.27646065 C-21.55366223 35.88271022 -21.56002873 33.48894718 -21.57371521 31.09523582 C-21.59134022 27.83034582 -21.58437357 24.56640342 -21.57118225 21.30151367 C-21.5821515 20.35150883 -21.59312074 19.401504 -21.60442239 18.42271113 C-21.54973362 12.82643709 -20.86816533 9.55157153 -17.08343506 5.14044189 C-11.47263056 0.72342559 -6.98755154 0.01960248 0 0 Z M47.91656494 18.14044189 C47.3258648 20.08647464 47.3258648 20.08647464 46.91656494 22.14044189 C48.10566745 23.55770426 48.10566745 23.55770426 51.51837158 23.25396729 C53.12116351 23.25380814 54.72396055 23.24811253 56.32672119 23.23809814 C57.58977333 23.23597572 57.58977333 23.23597572 58.87834167 23.23381042 C61.57861829 23.22819453 64.27881322 23.21563938 66.97906494 23.20294189 C68.80523562 23.19792894 70.6314076 23.19336568 72.45758057 23.18927002 C76.94394036 23.17821994 81.43023878 23.16094469 85.91656494 23.14044189 C86.50726508 21.19440915 86.50726508 21.19440915 86.91656494 19.14044189 C85.72746243 17.72317953 85.72746243 17.72317953 82.3147583 18.0269165 C80.71196638 18.02707564 79.10916934 18.03277126 77.50640869 18.04278564 C76.24335655 18.04490807 76.24335655 18.04490807 74.95478821 18.04707336 C72.25451159 18.05268926 69.55431667 18.06524441 66.85406494 18.07794189 C65.02789426 18.08295485 63.20172229 18.08751811 61.37554932 18.09161377 C56.88918952 18.10266385 52.4028911 18.1199391 47.91656494 18.14044189 Z M-5.08343506 34.14044189 C-7.55315948 37.84502853 -7.3684424 40.66700192 -7.3508606 44.95317078 C-7.35539171 45.7573716 -7.35992282 46.56157243 -7.36459124 47.39014298 C-7.37728576 50.09399513 -7.37561164 52.79764716 -7.3739624 55.50152588 C-7.37994446 57.43634298 -7.38674925 59.37115769 -7.39431763 61.30596924 C-7.41201658 66.56830175 -7.41667461 71.83056926 -7.4179492 77.09292865 C-7.41984589 81.48179886 -7.42720067 85.87065384 -7.43429339 90.25951821 C-7.45058935 100.61119134 -7.4554612 110.96282968 -7.45404053 121.31451416 C-7.45283841 132.00333801 -7.47395154 142.69196016 -7.50552785 153.38073295 C-7.53165117 162.54936725 -7.5424095 171.71793551 -7.54112971 180.88660675 C-7.54061896 186.36635011 -7.54636432 191.84591426 -7.56748581 197.32562065 C-7.58680211 202.47779584 -7.58703808 207.62961961 -7.57245255 212.78180695 C-7.57035519 214.67488936 -7.57512014 216.56799339 -7.58717346 218.46103859 C-7.60254125 221.04135291 -7.59337474 223.62044265 -7.57791138 226.20072937 C-7.5881985 226.95354846 -7.59848563 227.70636755 -7.60908449 228.48199934 C-7.56488656 231.80897071 -7.29750891 233.82448093 -5.41309547 236.60576916 C-2.49908147 238.52538707 -0.79308697 238.63862126 2.68560791 238.63491821 C4.45215729 238.64750168 4.45215729 238.64750168 6.25439453 238.66033936 C7.54283264 238.64910034 8.83127075 238.63786133 10.15875244 238.62628174 C11.53214886 238.62842811 12.9055435 238.63230657 14.27893066 238.63778687 C18.00629527 238.6474786 21.7331807 238.63217942 25.46048737 238.61188078 C29.3610428 238.59430898 33.26158346 238.59783489 37.16217041 238.59860229 C43.7125449 238.59672937 50.26273406 238.57936695 56.81304932 238.55206299 C64.38617302 238.52061224 71.95909376 238.51006681 79.53227806 238.51153409 C86.81732372 238.51275494 94.1023033 238.50254147 101.3873291 238.48595047 C104.48771684 238.47888976 107.58808118 238.47522468 110.68847656 238.47416306 C114.33942843 238.47215347 117.99021 238.45993817 121.64110565 238.43983078 C123.6202978 238.43120493 125.59952489 238.43232351 127.57873535 238.43371582 C128.75643494 238.42518585 129.93413452 238.41665588 131.14752197 238.40786743 C132.68281052 238.4028399 132.68281052 238.4028399 134.24911499 238.3977108 C136.95395684 238.13683554 138.60470951 237.52702637 140.91656494 236.14044189 C140.96322732 210.0982305 140.99852546 184.05602534 141.02018929 158.01378059 C141.03051427 145.92268606 141.04459787 133.83161745 141.06744385 121.74053955 C141.0873404 111.2054295 141.10027248 100.67033823 141.10474193 90.13520992 C141.10735566 84.55381184 141.11352427 78.97246749 141.12802505 73.39108658 C141.14155003 68.14301959 141.14579794 62.89502871 141.1427803 57.64694595 C141.14333275 55.71593818 141.14734035 53.784928 141.15497589 51.85393524 C141.16485769 49.22710324 141.16255878 46.60056245 141.15707397 43.97372437 C141.16289966 43.20136039 141.16872534 42.42899641 141.17472756 41.63322747 C141.29515739 37.4284164 141.29515739 37.4284164 138.91656494 34.14044189 C136.3129125 33.83246422 136.3129125 33.83246422 133.22271729 33.87974548 C132.01122009 33.87266068 130.7997229 33.86557587 129.55151367 33.85827637 C128.20184289 33.86057038 126.85217246 33.8630801 125.50250244 33.86578369 C124.08674856 33.86143843 122.67099703 33.85625591 121.25524902 33.85029602 C117.40408994 33.83687561 113.55302881 33.83633064 109.70185089 33.83885932 C106.49088686 33.83992684 103.27994284 33.83505138 100.06898308 33.8302539 C92.49667753 33.81914849 84.92442158 33.8187273 77.35211182 33.82476807 C69.53016708 33.83081183 61.70840204 33.81848908 53.88648796 33.797198 C47.1790292 33.77960916 40.47162779 33.77357627 33.7641468 33.77683574 C29.75441734 33.77865288 25.74481609 33.77596968 21.73510742 33.7621212 C17.96597683 33.74959125 14.19712743 33.75144062 10.4280014 33.76453209 C9.04203956 33.76690793 7.65605822 33.76412736 6.27011871 33.75590897 C4.38357545 33.74552577 2.49695281 33.75529742 0.6104126 33.76622009 C-0.4470517 33.76605235 -1.50451599 33.76588461 -2.59402466 33.76571178 C-3.82628281 33.95120319 -3.82628281 33.95120319 -5.08343506 34.14044189 Z M59.91656494 246.14044189 C58.97903845 249.28785227 58.62135637 251.25481618 59.66656494 254.39044189 C60.96761366 256.43061354 60.96761366 256.43061354 63.91656494 258.14044189 C67.50903751 258.59905541 69.23299185 258.62079055 72.22906494 256.51544189 C74.32832621 253.56092603 74.91656494 251.77120017 74.91656494 248.14044189 C73.57541095 245.13064307 73.57541095 245.13064307 70.91656494 243.14044189 C66.33777133 242.48632852 63.05099159 242.52379576 59.91656494 246.14044189 Z " fill="#000000" transform="translate(21.08343505859375,181.85955810546875)"/>
<path d="M0 0 C0.79687225 -0.00335861 1.59374451 -0.00671722 2.4147644 -0.01017761 C5.05647324 -0.01969923 7.69811881 -0.02163121 10.33984375 -0.02270508 C12.17065457 -0.02591638 14.00146512 -0.02928036 15.83227539 -0.03279114 C19.67236934 -0.03878513 23.51244077 -0.04063072 27.35253906 -0.04003906 C32.28251469 -0.03993733 37.21234667 -0.05360023 42.14228821 -0.07081127 C45.92371286 -0.08190716 49.70510248 -0.08395903 53.48654175 -0.08342934 C55.30468237 -0.08461269 57.12282381 -0.08905423 58.94094849 -0.0967617 C61.47896519 -0.10651482 64.01666616 -0.10370244 66.5546875 -0.09765625 C67.31111542 -0.10327576 68.06754333 -0.10889526 68.84689331 -0.11468506 C74.0490269 -0.08305318 74.0490269 -0.08305318 76.27734375 2.14526367 C76.55837681 5.02223096 76.74334473 7.82456128 76.83984375 10.70776367 C76.57040139 15.83332634 76.57040139 15.83332634 78.27734375 20.14526367 C80.14316016 20.26346062 82.01338644 20.31263584 83.8828125 20.3347168 C85.08075439 20.35143433 86.27869629 20.36815186 87.51293945 20.38537598 C88.81706787 20.39895142 90.12119629 20.41252686 91.46484375 20.42651367 C92.80624147 20.44454161 94.14763158 20.46314413 95.48901367 20.4822998 C99.75172775 20.54208137 104.01451742 20.59420542 108.27734375 20.64526367 C113.21513383 20.70440635 118.15284267 20.76663072 123.09048462 20.83714294 C125.07418947 20.86380328 127.05797152 20.88450107 129.04174805 20.90515137 C130.23968994 20.9218689 131.43763184 20.93858643 132.671875 20.95581055 C134.26286011 20.97460266 134.26286011 20.97460266 135.88598633 20.99377441 C138.27734375 21.14526367 138.27734375 21.14526367 139.27734375 22.14526367 C139.52833299 25.61735174 139.46256471 29.10266987 139.46484375 32.58276367 C139.47708984 33.5630957 139.48933594 34.54342773 139.50195312 35.5534668 C139.50388672 36.4899707 139.50582031 37.42647461 139.5078125 38.39135742 C139.51192139 39.2543042 139.51603027 40.11725098 139.52026367 41.00634766 C139.27734375 43.14526367 139.27734375 43.14526367 137.27734375 45.14526367 C134.71096069 45.3405817 132.25267576 45.41016434 129.68530273 45.39250183 C128.89279586 45.39491625 128.10028898 45.39733066 127.28376675 45.39981824 C124.61357457 45.40547877 121.94361914 45.39677446 119.2734375 45.38818359 C117.36508113 45.38925589 115.45672507 45.3911938 113.54837036 45.39393616 C108.35427332 45.39879598 103.16026178 45.39111466 97.96617508 45.38098311 C92.54052065 45.37222103 87.11486905 45.3739597 81.68920898 45.37434387 C72.57632002 45.37340639 63.46346428 45.36471108 54.35058594 45.35107422 C43.80212409 45.33534781 33.25369867 45.33007607 22.70522594 45.33080977 C12.57432231 45.33141936 2.44343058 45.32632022 -7.68746948 45.31801796 C-12.00641981 45.3144798 -16.32536592 45.31265395 -20.64431763 45.31212425 C-25.72660793 45.31112236 -30.80886746 45.30503833 -35.89114761 45.29495811 C-37.76087379 45.29202831 -39.6306035 45.29080871 -41.50033188 45.29138565 C-44.04379278 45.29187363 -46.58716644 45.28624745 -49.13061523 45.27897644 C-50.2520963 45.28129934 -50.2520963 45.28129934 -51.39623356 45.28366917 C-56.49429851 45.25944254 -56.49429851 45.25944254 -58.72265625 44.14526367 C-60.00461157 40.29939772 -59.9068117 36.6520377 -59.91015625 32.64526367 C-59.92240234 31.87311523 -59.93464844 31.1009668 -59.94726562 30.30541992 C-59.95742616 26.39699887 -59.93837673 24.46884439 -57.72265625 21.14526367 C-55.73580933 20.74653625 -55.73580933 20.74653625 -53.27294922 20.71289062 C-52.35214569 20.69309647 -51.43134216 20.67330231 -50.4826355 20.65290833 C-49.48676422 20.6465184 -48.49089294 20.64012848 -47.46484375 20.63354492 C-46.44665558 20.61559372 -45.42846741 20.59764252 -44.37942505 20.57914734 C-41.11887793 20.5248502 -37.85847877 20.4910863 -34.59765625 20.45776367 C-32.39060432 20.42460775 -30.18357196 20.39011973 -27.9765625 20.35424805 C-22.55872644 20.26911292 -17.14087168 20.20084563 -11.72265625 20.14526367 C-10.07285555 16.84566227 -10.34007264 13.15398483 -10.16015625 9.52026367 C-10.09538086 8.31756836 -10.09538086 8.31756836 -10.02929688 7.09057617 C-9.92314168 5.10901257 -9.8223877 3.12716097 -9.72265625 1.14526367 C-6.63673816 -0.39769537 -3.38659039 -0.00202895 0 0 Z " fill="#000000" transform="translate(257.72265625,405.854736328125)"/>
</svg>
