<svg id="Layer_1" data-name="Layer 1" xmlns="http://www.w3.org/2000/svg" viewBox="0 0 350 120"><defs><style>.cls-1{fill:#052465;}.cls-2{fill:#262c65;}.cls-3{fill:#ec0677;}</style></defs><path class="cls-1" d="M163.76,54v2.31a.22.22,0,0,0,.21.21h5.14a1.66,1.66,0,0,1,1.68,1.68V62a1.65,1.65,0,0,1-1.68,1.68H164a.23.23,0,0,0-.21.21v2.21a.23.23,0,0,0,.21.21h7.14A1.88,1.88,0,0,1,173,68.16V72a1.8,1.8,0,0,1-1.89,1.79H156.83c-1.47,0-2.52-1.16-2.52-3.15V47.89c0-.84,1.15-1.89,2.52-1.89h14.28A1.86,1.86,0,0,1,173,47.79v3.88a1.86,1.86,0,0,1-1.89,1.79H164A4,4,0,0,0,163.76,54Z"/><path class="cls-1" d="M198.93,73.83a1.78,1.78,0,0,1-1.05.31h-4.73c-1.26,0-1.78-.84-2.31-2.2l-1.05-2.73h-5.35l-1.05,2.73c-.53,1.36-1,2.1-2.31,2.1h-4.83a1.58,1.58,0,0,1-.95-.21A2.29,2.29,0,0,1,174,71.1l6.3-23.1a2,2,0,0,1,.84-1.26,1.93,1.93,0,0,1,1.37-.42h9.13a2.23,2.23,0,0,1,1.68.63,3,3,0,0,1,.74,1.57l6,22.68A2.35,2.35,0,0,1,198.93,73.83Zm-9.77-13.34-.94-2.41-.74-1.79c-.1-.42-.73-.42-.94,0l-.74,1.79-.94,2.41c-.21.32.1.63.42.63h3.25C189.06,61.12,189.27,60.81,189.16,60.49Z"/><path class="cls-1" d="M221.71,48.63v4.83a2.44,2.44,0,0,1-2.41,2.41h-4.83c-.11,0-.32.11-.32.21V71.73a2.44,2.44,0,0,1-2.41,2.41H207a2.54,2.54,0,0,1-2.52-2.41V56.08a.23.23,0,0,0-.21-.21h-4.83A2.44,2.44,0,0,1,197,53.46V48.63a2.44,2.44,0,0,1,2.41-2.42H219.3A2.32,2.32,0,0,1,221.71,48.63Z"/><path class="cls-1" d="M242.08,48.1V52a1.84,1.84,0,0,1-1.79,1.78h-7.14a.23.23,0,0,0-.21.21v3.26a.23.23,0,0,0,.21.21h5.15A1.66,1.66,0,0,1,240,59.13V63a1.66,1.66,0,0,1-1.68,1.68h-5.15c-.1,0-.21.11-.21.32v6.61a2.6,2.6,0,0,1-2.62,2.63h-4.41a2.59,2.59,0,0,1-2.52-2.63V48.84a2.59,2.59,0,0,1,2.52-2.63h14.38A1.86,1.86,0,0,1,242.08,48.1Z"/><path class="cls-1" d="M250.16,74.14h-4.3a2.55,2.55,0,0,1-2.52-2.52v-23a2.48,2.48,0,0,1,2.52-2.52h4.3a2.43,2.43,0,0,1,2.52,2.52v23A2.48,2.48,0,0,1,250.16,74.14Z"/><path class="cls-1" d="M278.62,48.63v4.83a2.45,2.45,0,0,1-2.42,2.41h-4.83c-.1,0-.31.11-.31.21V71.73a2.45,2.45,0,0,1-2.42,2.41h-4.72a2.53,2.53,0,0,1-2.52-2.41V56.08a.23.23,0,0,0-.21-.21h-4.83a2.44,2.44,0,0,1-2.42-2.41V48.63a2.45,2.45,0,0,1,2.42-2.42H276.2A2.32,2.32,0,0,1,278.62,48.63Z"/><polygon class="cls-2" points="91.94 40.55 87.64 45.06 91.52 43.17 99.19 45.27 107.48 43.8 100.45 43.59 91.94 40.55"/><polygon class="cls-2" points="104.23 40.86 107.69 37.81 94.78 40.13 104.23 40.86"/><polygon class="cls-2" points="104.65 35.72 106.96 32.25 99.61 34.03 92.05 39.18 100.76 36.24 104.65 35.72"/><path class="cls-2" d="M80.92,65.43l6.61,6.09L95.2,69,88,69.63l-9-8.82Z"/><polygon class="cls-2" points="84.7 73.83 82.91 72.25 84.49 75.61 87.22 76.03 94.88 71.62 87.74 74.25 84.7 73.83"/><polygon class="cls-2" points="114.83 43.59 107.8 43.8 116.09 45.27 123.75 43.17 127.74 45.06 123.44 40.55 114.83 43.59"/><polygon class="cls-2" points="120.61 40.13 107.69 37.71 111.16 40.76 120.61 40.13"/><polygon class="cls-2" points="114.52 36.24 123.23 39.18 115.67 34.03 108.43 32.25 110.63 35.72 114.52 36.24"/><path class="cls-2" d="M120.18,69l7.67,2.52,6.61-6.09,2-4.62-9,8.82Z"/><polygon class="cls-2" points="127.53 74.25 120.39 71.62 128.06 76.03 130.89 75.61 132.36 72.25 130.68 73.83 127.53 74.25"/><path class="cls-1" d="M143.81,54.09h0v0A14.32,14.32,0,0,0,142.34,53a13,13,0,0,0-5.25-1.79,17.46,17.46,0,0,0-2.31,0,37.49,37.49,0,0,0-2.1-5c-.21-.31-.32-.73-.53-1.05a.1.1,0,0,1,.11-.1,21.58,21.58,0,0,0,3.15-5.25,10,10,0,0,0-.21-8.29c-1.37-2.94-3.36-3.26-3.36-3.26h0a8.49,8.49,0,0,0-3.68.11,25.42,25.42,0,0,0-5.56,2.1,29.78,29.78,0,0,0-2.84,1.26,6.92,6.92,0,0,1-2.2-.11,22.75,22.75,0,0,0-5.56-.94,13.71,13.71,0,0,0-4.31.1,13.63,13.63,0,0,0-4.3-.1,30.89,30.89,0,0,0-5.57.94,6.92,6.92,0,0,1-2.2.11c-.42-.21-1.47-.63-2.84-1.26a25.42,25.42,0,0,0-5.56-2.1,8.49,8.49,0,0,0-3.68-.11h0s-2,.32-3.36,3.26A10.86,10.86,0,0,0,80,39.81a17.92,17.92,0,0,0,3.15,5.25.1.1,0,0,0,.11.1,10.21,10.21,0,0,0-.53,1.05,37.49,37.49,0,0,0-2.1,5,8.84,8.84,0,0,0-2.31,0A13,13,0,0,0,73,53a7.88,7.88,0,0,0-1.47,1.05h0a20.56,20.56,0,0,0,.11,6.3c.52,3.46,1.47,8.19,1.47,8.19l.94-.21A36.36,36.36,0,0,0,75.46,72a26.57,26.57,0,0,0,5.46,8.51l1.78-.11L82.91,83l15.44,3.36c.63,1.79,1.15,3.15,1.15,3.15a6.63,6.63,0,0,0,2.84,1.68,26.63,26.63,0,0,0,5.46.74h0a26.71,26.71,0,0,0,5.46-.74,7.56,7.56,0,0,0,2.83-1.68s.52-1.26,1.15-3.15L132.68,83l.21-2.52,1.78.11A26.57,26.57,0,0,0,140.13,72a36.36,36.36,0,0,0,1.37-3.67l.94.21s1.05-4.73,1.47-8.19A26,26,0,0,0,143.81,54.09ZM114,88c-.42.74-6.19,1.58-6.19,1.58h-.42c-1.16-.21-5.57-.84-6-1.58-.31-.42-1.68-3.88-2.83-6.72a11,11,0,0,0,2.31.42,11.61,11.61,0,0,0,5.35-.94,3,3,0,0,0,1.47-1.37,6.48,6.48,0,0,0,1.47,1.37,11.65,11.65,0,0,0,5.36.94,9.8,9.8,0,0,0,2.3-.42C115.67,84.22,114.2,87.58,114,88Zm27.82-32.76s-.1,4.31-.52,7.35c-.53,3.36-.84,3.78-.84,3.78l-5.15.32,3.57,2.2A47.8,47.8,0,0,1,136,74.77a18,18,0,0,1-3,3.68l-2.83.1-.11,2.73L117.87,84c1.26-3.36,2.73-7.24,2.84-7.66a3,3,0,0,0,0-1.47l-6-11.24A9.35,9.35,0,0,0,116.3,65l-4.62-5.88a.1.1,0,0,0,.11.1v.11c-.32,1.57,1.68,5.67,1.68,5.67s2.51,4.62,4.09,7.56L110.63,75l7.87-.73a1.6,1.6,0,0,1,.32.63,1.62,1.62,0,0,1,.1.73l-8.5.42,8.19,1.16v.21s-.21.52-.63,1.47l-7.77-2,6.3,2.94c-.11,0-.21.11-.42.11a8.63,8.63,0,0,1-4.93-.21,7.08,7.08,0,0,1-2.42-2.52l.11-2s5.46-2.41,5.77-4.2-1.47-1.68-1.47-1.68l-5.35,1.16h0l-5.36-1.16A1.43,1.43,0,0,0,101,71c.32,1.68,5.78,4.2,5.78,4.2l.1,2a8.26,8.26,0,0,1-2.41,2.52,8.67,8.67,0,0,1-4.94.21c-.1,0-.21-.11-.42-.11l6.3-2.94-7.77,2A15.3,15.3,0,0,0,97,77.4v-.21L105.17,76l-8.5-.42a1.62,1.62,0,0,1,.1-.73c0-.11.21-.32.32-.63L105,75,98,72.57c1.58-2.94,4.1-7.56,4.1-7.56s2-4.1,1.68-5.67v-.11c0-.1.1-.21.1-.31h-.1s-2.31,3.57-3.36,5a1.39,1.39,0,0,1,.42-.32l-6,11.24a2.07,2.07,0,0,0,0,1.47c.11.42,1.58,4.2,2.84,7.66L85.54,81.28l-.11-2.73-2.83-.1a22.69,22.69,0,0,1-3-3.68,47.8,47.8,0,0,1-2.83-5.88l3.57-2.2-5.15-.32a31.85,31.85,0,0,1-.84-3.78,52.91,52.91,0,0,1-.52-7.35h0a7.88,7.88,0,0,1,4.2-2,14.35,14.35,0,0,1,4.41-.11s.1-.52.52-2A35.9,35.9,0,0,1,85,46a51.75,51.75,0,0,1,4.2-6.19L88,38.76s-.42.52-1.36,1.57c-.53.74-1.47,1.79-2.31,3.15-.84-1.26-2.63-4-2.84-5.45-.31-2.1-.52-3.89.53-5.88a4,4,0,0,1,2-2.21,5.62,5.62,0,0,1,2.63,0c.94.32,4.09,1.47,5.77,2.21a12.36,12.36,0,0,0,3.89,1.36c1-.1,2.94-.42,6.09-1a15.33,15.33,0,0,1,5.46-.1h0a15.33,15.33,0,0,1,5.46.1c3,.63,5,.95,6.08,1s2.21-.52,3.89-1.36,4.83-1.89,5.77-2.21a5.62,5.62,0,0,1,2.63,0c.42.11,1.26.63,2,2.21a9.49,9.49,0,0,1,.53,5.88c-.21,1.57-2,4.19-2.84,5.45A29.7,29.7,0,0,0,129,40.33c-.84-1-1.36-1.57-1.36-1.57l-1.26,1.05a51.75,51.75,0,0,1,4.2,6.19,35.9,35.9,0,0,1,2.1,5.15,7.33,7.33,0,0,1,.52,2,14.12,14.12,0,0,1,4.41.11,6.76,6.76,0,0,1,4.2,2Z"/><path class="cls-3" d="M132.36,56.82a9,9,0,0,0-4.2-7.77,13.21,13.21,0,0,0-6.09-1.26s-2.31-.11-4.51,0H97.72c-2.21-.11-4.73,0-4.73,0a13,13,0,0,0-6.09,1.26,8.83,8.83,0,0,0-4.2,7.77,12.38,12.38,0,0,0,1.16,5.67,9.82,9.82,0,0,0,7.87,5.14A13.35,13.35,0,0,0,105.07,54.3h0v-.21H110v.21h0a13.35,13.35,0,0,0,13.33,13.33,9.52,9.52,0,0,0,7.88-5.14A10.81,10.81,0,0,0,132.36,56.82Zm-27.71-4.94a4.47,4.47,0,0,0-1.05-1.78h7.66a10,10,0,0,0-1.05,1.78Z"/></svg>