<svg width="20" height="20" viewBox="0 0 20 20" fill="none" xmlns="http://www.w3.org/2000/svg">
<path opacity="0.2" d="M13.625 10.375C13.625 10.9931 13.4417 11.5973 13.0983 12.1112C12.755 12.6251 12.2669 13.0256 11.6959 13.2621C11.1249 13.4986 10.4965 13.5605 9.89034 13.44C9.28415 13.3194 8.72733 13.0217 8.29029 12.5847C7.85325 12.1477 7.55563 11.5908 7.43505 10.9847C7.31447 10.3785 7.37635 9.75013 7.61288 9.17911C7.8494 8.6081 8.24994 8.12004 8.76384 7.77666C9.27775 7.43328 9.88193 7.25 10.5 7.25C11.3288 7.25 12.1237 7.57924 12.7097 8.16529C13.2958 8.75134 13.625 9.5462 13.625 10.375ZM5.5 3.5C5.00555 3.5 4.5222 3.64662 4.11108 3.92133C3.69995 4.19603 3.37952 4.58648 3.1903 5.04329C3.00108 5.50011 2.95157 6.00277 3.04804 6.48773C3.1445 6.97268 3.3826 7.41814 3.73223 7.76777C4.08187 8.1174 4.52732 8.3555 5.01228 8.45196C5.49723 8.54843 5.99989 8.49892 6.45671 8.3097C6.91353 8.12048 7.30397 7.80005 7.57868 7.38893C7.85338 6.9778 8 6.49445 8 6C8 5.33696 7.73661 4.70107 7.26777 4.23223C6.79893 3.76339 6.16304 3.5 5.5 3.5ZM15.5 3.5C15.0055 3.5 14.5222 3.64662 14.1111 3.92133C13.7 4.19603 13.3795 4.58648 13.1903 5.04329C13.0011 5.50011 12.9516 6.00277 13.048 6.48773C13.1445 6.97268 13.3826 7.41814 13.7322 7.76777C14.0819 8.1174 14.5273 8.3555 15.0123 8.45196C15.4972 8.54843 15.9999 8.49892 16.4567 8.3097C16.9135 8.12048 17.304 7.80005 17.5787 7.38893C17.8534 6.9778 18 6.49445 18 6C18 5.33696 17.7366 4.70107 17.2678 4.23223C16.7989 3.76339 16.163 3.5 15.5 3.5Z" fill="#555770"/>
<path d="M19.5002 10.9993C19.4346 11.0486 19.3599 11.0844 19.2803 11.1048C19.2008 11.1251 19.1181 11.1297 19.0368 11.118C18.9556 11.1064 18.8774 11.0789 18.8068 11.0371C18.7362 10.9953 18.6745 10.94 18.6252 10.8743C18.2485 10.368 17.7582 9.95713 17.1937 9.67489C16.6292 9.39264 16.0063 9.24688 15.3752 9.24933C15.2095 9.24933 15.0505 9.18348 14.9333 9.06627C14.8161 8.94906 14.7502 8.79009 14.7502 8.62433C14.7502 8.45857 14.8161 8.29959 14.9333 8.18238C15.0505 8.06517 15.2095 7.99933 15.3752 7.99933C15.7259 7.9993 16.0696 7.90092 16.3671 7.71537C16.6647 7.52983 16.9043 7.26455 17.0586 6.94967C17.213 6.63479 17.276 6.28293 17.2404 5.93406C17.2048 5.58519 17.0721 5.25329 16.8573 4.97606C16.6426 4.69883 16.3544 4.48739 16.0255 4.36574C15.6966 4.2441 15.3401 4.21713 14.9967 4.28791C14.6532 4.35868 14.3365 4.52435 14.0824 4.76612C13.8284 5.00788 13.6473 5.31603 13.5596 5.65558C13.5391 5.73509 13.5031 5.80978 13.4537 5.87538C13.4043 5.94099 13.3425 5.99623 13.2718 6.03794C13.2011 6.07966 13.1228 6.10703 13.0415 6.1185C12.9602 6.12997 12.8774 6.12531 12.7979 6.10479C12.7184 6.08428 12.6437 6.0483 12.5781 5.99891C12.5125 5.94953 12.4572 5.8877 12.4155 5.81697C12.3738 5.74624 12.3464 5.66798 12.335 5.58667C12.3235 5.50536 12.3282 5.42259 12.3487 5.34308C12.4704 4.87223 12.7003 4.43628 13.0201 4.06991C13.3399 3.70355 13.7408 3.41688 14.1909 3.23272C14.641 3.04857 15.1279 2.972 15.6128 3.00912C16.0977 3.04623 16.5672 3.19601 16.984 3.44652C17.4009 3.69704 17.7535 4.04138 18.0138 4.45215C18.2741 4.86292 18.435 5.32878 18.4836 5.81267C18.5322 6.29655 18.4672 6.7851 18.2938 7.23944C18.1204 7.69378 17.8433 8.10138 17.4846 8.42979C18.3345 8.79776 19.0732 9.38168 19.6276 10.1235C19.6768 10.1894 19.7126 10.2643 19.7328 10.3439C19.7531 10.4236 19.7574 10.5065 19.7456 10.5879C19.7338 10.6692 19.706 10.7474 19.6639 10.818C19.6218 10.8886 19.5662 10.9502 19.5002 10.9993ZM15.2909 15.8118C15.3345 15.883 15.3634 15.9621 15.376 16.0447C15.3885 16.1272 15.3844 16.2114 15.3639 16.2923C15.3434 16.3732 15.3069 16.4491 15.2565 16.5157C15.2061 16.5822 15.143 16.638 15.0707 16.6798C14.9984 16.7215 14.9185 16.7484 14.8357 16.7587C14.7529 16.7691 14.6688 16.7628 14.5885 16.7401C14.5082 16.7175 14.4332 16.679 14.368 16.6269C14.3028 16.5748 14.2487 16.5102 14.2088 16.4368C13.8151 15.7703 13.2544 15.218 12.582 14.8343C11.9097 14.4506 11.149 14.2488 10.3748 14.2488C9.60073 14.2488 8.83999 14.4506 8.16766 14.8343C7.49533 15.218 6.93462 15.7703 6.54086 16.4368C6.50179 16.5115 6.44801 16.5775 6.38277 16.6309C6.31752 16.6843 6.24215 16.7239 6.1612 16.7474C6.08024 16.7709 5.99537 16.7777 5.91169 16.7676C5.82802 16.7574 5.74726 16.7304 5.67428 16.6882C5.6013 16.646 5.53761 16.5895 5.48704 16.5221C5.43647 16.4547 5.40006 16.3777 5.38 16.2958C5.35995 16.2139 5.35667 16.1289 5.37035 16.0457C5.38403 15.9625 5.41439 15.883 5.45961 15.8118C6.06555 14.7707 6.98945 13.9514 8.09555 13.4743C7.47315 12.9978 7.01573 12.3382 6.78758 11.5883C6.55943 10.8383 6.57203 10.0357 6.82361 9.29331C7.07518 8.5509 7.55308 7.90599 8.19013 7.44923C8.82719 6.99247 9.59136 6.74682 10.3752 6.74682C11.1591 6.74682 11.9233 6.99247 12.5603 7.44923C13.1974 7.90599 13.6753 8.5509 13.9269 9.29331C14.1784 10.0357 14.191 10.8383 13.9629 11.5883C13.7347 12.3382 13.2773 12.9978 12.6549 13.4743C13.761 13.9514 14.6849 14.7707 15.2909 15.8118ZM10.3752 12.9993C10.8697 12.9993 11.353 12.8527 11.7642 12.578C12.1753 12.3033 12.4957 11.9128 12.6849 11.456C12.8742 10.9992 12.9237 10.4966 12.8272 10.0116C12.7307 9.52665 12.4926 9.08119 12.143 8.73156C11.7934 8.38193 11.3479 8.14383 10.863 8.04736C10.378 7.9509 9.87534 8.00041 9.41853 8.18963C8.96171 8.37885 8.57127 8.69928 8.29656 9.1104C8.02186 9.52152 7.87524 10.0049 7.87524 10.4993C7.87524 11.1624 8.13863 11.7983 8.60747 12.2671C9.07631 12.7359 9.7122 12.9993 10.3752 12.9993ZM6.00024 8.62433C6.00024 8.45857 5.93439 8.29959 5.81718 8.18238C5.69997 8.06517 5.541 7.99933 5.37524 7.99933C5.02456 7.9993 4.68091 7.90092 4.38334 7.71537C4.08576 7.52983 3.84619 7.26455 3.69182 6.94967C3.53746 6.63479 3.47449 6.28293 3.51008 5.93406C3.54566 5.58519 3.67837 5.25329 3.89313 4.97606C4.10789 4.69883 4.39609 4.48739 4.725 4.36574C5.05391 4.2441 5.41034 4.21713 5.7538 4.28791C6.09727 4.35868 6.414 4.52435 6.66803 4.76612C6.92206 5.00788 7.10319 5.31603 7.19086 5.65558C7.2323 5.81616 7.33583 5.9537 7.47868 6.03794C7.62153 6.12219 7.792 6.14623 7.95258 6.10479C8.11316 6.06335 8.2507 5.95982 8.33495 5.81697C8.41919 5.67412 8.44324 5.50366 8.4018 5.34308C8.28011 4.87223 8.05022 4.43628 7.7304 4.06991C7.41058 3.70355 7.00968 3.41688 6.55958 3.23272C6.10947 3.04857 5.6226 2.972 5.1377 3.00912C4.6528 3.04623 4.18326 3.19601 3.76643 3.44652C3.3496 3.69704 2.99699 4.04138 2.73666 4.45215C2.47633 4.86292 2.31546 5.32878 2.26685 5.81267C2.21825 6.29655 2.28325 6.7851 2.45668 7.23944C2.63011 7.69378 2.90719 8.10138 3.26586 8.42979C2.41686 8.79811 1.67892 9.382 1.12524 10.1235C1.02568 10.2562 0.982874 10.4229 1.00624 10.587C1.02961 10.7512 1.11724 10.8994 1.24985 10.9989C1.38245 11.0985 1.54918 11.1413 1.71335 11.1179C1.87752 11.0946 2.02568 11.0069 2.12524 10.8743C2.50195 10.368 2.99228 9.95713 3.55677 9.67489C4.12125 9.39264 4.74412 9.24688 5.37524 9.24933C5.541 9.24933 5.69997 9.18348 5.81718 9.06627C5.93439 8.94906 6.00024 8.79009 6.00024 8.62433Z" fill="#555770"/>
</svg>
