<svg id="Layer_1" data-name="Layer 1" xmlns="http://www.w3.org/2000/svg" viewBox="0 0 350 120"><defs><style>.cls-1{fill:#2f4254;}</style></defs><path class="cls-1" d="M146.63,74.57a8.48,8.48,0,0,0,14.5-6V34.33h8.65V68.59a16.76,16.76,0,0,1-5,12.14,17.06,17.06,0,0,1-12.14,5,16.58,16.58,0,0,1-12.13-5l6.13-6.16Z"/><polygon class="cls-1" points="187.39 34.33 195.89 34.33 195.89 85.67 187.39 85.67 187.39 34.33"/><path class="cls-1" d="M248.41,72.15a16.63,16.63,0,0,1-12.06,4.94A16.87,16.87,0,0,1,219.28,60a17.07,17.07,0,1,1,29.13,12.13Zm6.05-30.28a24.63,24.63,0,0,0-18.11-7.54,24.38,24.38,0,0,0-18.11,7.54A24.85,24.85,0,0,0,210.7,60a24.63,24.63,0,0,0,7.54,18.11,25.52,25.52,0,0,0,36.22,0A24.27,24.27,0,0,0,262.07,60a24.61,24.61,0,0,0-7.61-18.15Z"/><path class="cls-1" d="M103.22,68.56H118.3l-7.54-15.09-7.54,15.09Zm19.37,8.53H99L94.6,85.67H85.07L110.76,34.3l25.68,51.37h-9.53l-4.32-8.58Z"/></svg>