<?xml version="1.0" standalone="no"?>
<!DOCTYPE svg PUBLIC "-//W3C//DTD SVG 20010904//EN"
 "http://www.w3.org/TR/2001/REC-SVG-20010904/DTD/svg10.dtd">
<svg version="1.0" xmlns="http://www.w3.org/2000/svg"
 width="164.000000pt" height="79.000000pt" viewBox="0 0 164.000000 79.000000"
 preserveAspectRatio="xMidYMid meet">

<g transform="translate(0.000000,79.000000) scale(0.100000,-0.100000)"
fill="#c03b4e" stroke="none">
<path d="M993 554 c-4 -10 12 -33 46 -68 l53 -53 -97 -98 -96 -98 -67 66 c-37
37 -72 67 -78 67 -19 0 -284 -272 -284 -291 0 -41 40 -15 155 101 66 66 124
120 130 120 5 0 37 -27 70 -60 33 -33 66 -60 75 -60 8 0 63 48 122 107 l108
107 54 -53 c80 -79 86 -73 86 94 l0 135 -135 0 c-114 0 -137 -2 -142 -16z
m227 -99 c0 -36 -1 -65 -3 -65 -5 0 -127 120 -127 125 0 3 29 5 65 5 l65 0 0
-65z"/>
</g>
</svg>
