<svg width="24" height="25" viewBox="0 0 24 25" fill="none" xmlns="http://www.w3.org/2000/svg">
<g clip-path="url(#clip0_62_9070)">
<path d="M12 0.652344C5.38293 0.652344 0 6.03528 0 12.6523C0 19.2694 5.38293 24.6523 12 24.6523C18.6171 24.6523 24 19.2694 24 12.6523C24 6.03528 18.6171 0.652344 12 0.652344Z" fill="#EEFFF7"/>
<path d="M18.0819 10.1096L11.5818 16.6095C11.3868 16.8045 11.1309 16.9026 10.8749 16.9026C10.6189 16.9026 10.3629 16.8045 10.1679 16.6095L6.91797 13.3596C6.52686 12.9686 6.52686 12.3365 6.91797 11.9456C7.3089 11.5545 7.9408 11.5545 8.33191 11.9456L10.8749 14.4886L16.668 8.69568C17.0589 8.30457 17.6908 8.30457 18.0819 8.69568C18.4728 9.08661 18.4728 9.71851 18.0819 10.1096Z" fill="#6FCD9E"/>
</g>
<defs>
<clipPath id="clip0_62_9070">
<rect width="24" height="24" fill="white" transform="translate(0 0.652344)"/>
</clipPath>
</defs>
</svg>
