<svg width="52" height="52" viewBox="0 0 52 52" fill="none" xmlns="http://www.w3.org/2000/svg">
<path d="M45.5644 0.0742188H5.53327C2.47733 0.0742188 0 2.56236 0 5.63165V45.8376C0 48.9069 2.47733 51.395 5.53327 51.395H45.5644C48.6203 51.395 51.0977 48.9069 51.0977 45.8376V5.63165C51.0977 2.56236 48.6203 0.0742188 45.5644 0.0742188Z" fill="#1A9FBD"/>
<path d="M27.6096 22.7713C28.1369 22.2873 28.6358 21.7578 29.2084 21.3307C30.1608 20.6133 31.289 20.3399 32.4513 20.2318C34.05 20.0837 35.6317 20.1691 37.1228 20.8467C38.6818 21.5585 39.6683 22.7941 40.2919 24.36C40.8532 25.7778 41.0856 27.264 41.1083 28.7729C41.165 32.4627 41.165 36.1581 41.182 39.8479C41.182 40.6849 40.7625 41.0892 39.9348 41.0892C38.5118 41.0892 37.0831 41.0892 35.6601 41.0892C34.8777 41.0892 34.4979 40.702 34.4979 39.9105C34.4979 36.7389 34.5149 33.573 34.4865 30.4014C34.4809 29.6441 34.3732 28.8697 34.1861 28.1351C33.8346 26.7401 32.8764 25.9543 31.5158 25.8347C30.0758 25.7095 28.8966 26.37 28.2786 27.6512C27.8307 28.5736 27.6097 29.5416 27.6153 30.5665C27.6153 33.6584 27.6153 36.7503 27.6153 39.8422C27.6153 40.6849 27.2241 41.0778 26.3794 41.0778C25.0188 41.0778 23.6581 41.0778 22.2918 41.0778C21.4811 41.0778 21.0672 40.6621 21.0672 39.8593C21.0672 33.8008 21.0672 27.748 21.0672 21.6894C21.0672 20.8695 21.4641 20.4766 22.2861 20.4766C23.6865 20.4766 25.0868 20.4766 26.4871 20.4766C27.2128 20.4766 27.6097 20.8809 27.6153 21.6154C27.6153 22.014 27.6153 22.4069 27.6153 22.7599L27.6096 22.7713Z" fill="white"/>
<path d="M11.7412 30.7833C11.7412 27.7712 11.7412 24.7533 11.7412 21.7411C11.7412 20.8813 12.138 20.4884 12.9997 20.4827C14.3604 20.4827 15.721 20.4827 17.0817 20.4827C17.8073 20.4827 18.2439 20.9041 18.2779 21.6329C18.2836 21.7981 18.2779 21.9632 18.2779 22.1283C18.2779 27.9534 18.2779 33.7784 18.2779 39.6035C18.2779 40.7195 17.9094 41.0839 16.7869 41.0839C15.5396 41.0839 14.2924 41.0839 13.0451 41.0839C12.1437 41.0839 11.7355 40.6796 11.7355 39.7857C11.7355 36.7849 11.7355 33.7841 11.7355 30.7833H11.7412Z" fill="white"/>
<path d="M19.2077 14.6057C19.2077 16.9403 17.2971 18.8592 14.984 18.8478C12.6936 18.8364 10.7831 16.9061 10.7831 14.6114C10.7831 12.3053 12.6879 10.3807 14.984 10.375C17.3028 10.3693 19.2133 12.2768 19.2133 14.6114L19.2077 14.6057Z" fill="white"/>
</svg>
