<svg width="22" height="20" viewBox="0 0 22 20" fill="none" xmlns="http://www.w3.org/2000/svg">
<g id="Challenge-Type/Variant9">
<path id="Vector" opacity="0.2" d="M20.625 9.375C20.625 10.2038 20.2628 10.9987 19.6182 11.5847C18.9735 12.1708 18.0992 12.5 17.1875 12.5H13.75V6.25H17.1875C18.0992 6.25 18.9735 6.57924 19.6182 7.16529C20.2628 7.75134 20.625 8.5462 20.625 9.375Z" fill="#E7C2C9"/>
<path id="Vector_2" d="M21.3125 9.37405C21.3114 8.37981 20.8764 7.42658 20.1031 6.72354C19.3297 6.0205 18.2812 5.62508 17.1875 5.62405H13.7672C13.5171 5.61077 9.15922 5.33186 5.0093 2.1678C4.8089 2.01479 4.56463 1.91696 4.30518 1.88578C4.04574 1.8546 3.7819 1.89138 3.54465 1.9918C3.3074 2.09221 3.1066 2.25209 2.96584 2.45266C2.82508 2.65322 2.7502 2.88614 2.75 3.12405V15.6241C2.75004 15.862 2.8248 16.095 2.96549 16.2957C3.10619 16.4964 3.30698 16.6564 3.54426 16.7569C3.78154 16.8574 4.04545 16.8943 4.30497 16.8631C4.56449 16.832 4.80884 16.7341 5.0093 16.5811C8.25516 14.1061 11.6265 13.3967 13.0625 13.1983V15.6764C13.0622 15.8824 13.1179 16.0852 13.2247 16.2669C13.3314 16.4486 13.4859 16.6035 13.6744 16.7178L14.6197 17.2905C14.8024 17.4013 15.0117 17.4708 15.23 17.493C15.4483 17.5152 15.6693 17.4896 15.8745 17.4182C16.0796 17.3468 16.263 17.2318 16.4092 17.0828C16.5554 16.9337 16.6602 16.755 16.7148 16.5616L17.7263 13.0959C18.7187 12.9759 19.6293 12.5324 20.2889 11.8478C20.9486 11.1632 21.3123 10.2841 21.3125 9.37405ZM4.125 15.6186V3.12405C7.80398 5.92952 11.5698 6.63967 13.0625 6.81467V11.9303C11.5715 12.1084 7.80656 12.817 4.125 15.6186ZM15.3828 16.2436V16.2522L14.4375 15.6795V13.1241H16.2938L15.3828 16.2436ZM17.1875 11.874H14.4375V6.87405H17.1875C17.9168 6.87405 18.6163 7.13744 19.132 7.60628C19.6478 8.07512 19.9375 8.71101 19.9375 9.37405C19.9375 10.0371 19.6478 10.673 19.132 11.1418C18.6163 11.6107 17.9168 11.874 17.1875 11.874Z" fill="#F13459"/>
</g>
</svg>
