<svg id="Layer_1" data-name="Layer 1" xmlns="http://www.w3.org/2000/svg" viewBox="0 0 350 120"><path d="M49.21,73.66V38.1H61.42a24.11,24.11,0,0,1,5.51.6,11.88,11.88,0,0,1,4.47,1.91,8.85,8.85,0,0,1,3,3.55,11.42,11.42,0,0,1,1.15,5.4A11.8,11.8,0,0,1,74.4,55a10.06,10.06,0,0,1-3,3.77A12.83,12.83,0,0,1,67,60.9a19.76,19.76,0,0,1-5.35.71H57.23v12Zm8-18.43h3.92q6.54,0,6.55-5.67A4.35,4.35,0,0,0,66,45.63a9.18,9.18,0,0,0-5-1.15h-3.7ZM86,74.31a8.45,8.45,0,0,1-3.38-.65A7.09,7.09,0,0,1,80.1,72a8.82,8.82,0,0,1-1.63-2.62,9,9,0,0,1-.55-3.22,7.57,7.57,0,0,1,3.6-6.65q3.6-2.4,11.62-3.22a4.4,4.4,0,0,0-1.09-2.83,4,4,0,0,0-3.17-1.09,10.06,10.06,0,0,0-3.49.65,27.15,27.15,0,0,0-3.65,1.8L78.85,49.5a28.46,28.46,0,0,1,5.45-2.56,18.76,18.76,0,0,1,6.11-1q5.24,0,8,3t2.78,9.21V73.66H94.61l-.55-2.78h-.21a18.34,18.34,0,0,1-3.66,2.51A9.44,9.44,0,0,1,86,74.31Zm2.73-6.21a4.44,4.44,0,0,0,2.35-.6,12,12,0,0,0,2.07-1.69V61.06q-4.26.6-5.89,1.75a3.29,3.29,0,0,0-1.64,2.72,2.36,2.36,0,0,0,.82,2A4,4,0,0,0,88.72,68.1Zm28.87,17.07a21.72,21.72,0,0,1-4.47-.44,12.7,12.7,0,0,1-3.6-1.2,6.38,6.38,0,0,1-2.4-2.13,5.46,5.46,0,0,1-.88-3.1c0-2.19,1.29-4,3.88-5.46v-.22a5.94,5.94,0,0,1-1.8-1.8,5.29,5.29,0,0,1,.16-5.56A8.2,8.2,0,0,1,110.66,63v-.22A9.49,9.49,0,0,1,108.1,60,8.17,8.17,0,0,1,107,55.72a9.29,9.29,0,0,1,.92-4.26,8.91,8.91,0,0,1,2.46-3.05,10.43,10.43,0,0,1,3.6-1.85,14.61,14.61,0,0,1,4.2-.6,12.19,12.19,0,0,1,4.2.65h9.87v5.84H128a5.24,5.24,0,0,1,.6,1.52,7.2,7.2,0,0,1,.27,2,9.48,9.48,0,0,1-.82,4.09,7.91,7.91,0,0,1-2.29,2.84,9.76,9.76,0,0,1-3.38,1.63,14.75,14.75,0,0,1-4.14.55,10.39,10.39,0,0,1-3.27-.55,2.66,2.66,0,0,0-.77.88,2.63,2.63,0,0,0-.22,1.14,1.63,1.63,0,0,0,.88,1.53,7.54,7.54,0,0,0,3.21.49h4.37c3.34,0,5.89.54,7.63,1.63a5.61,5.61,0,0,1,2.67,5.24,7.11,7.11,0,0,1-1.09,3.87,8.93,8.93,0,0,1-3,3.06,15.33,15.33,0,0,1-4.74,2A23.71,23.71,0,0,1,117.59,85.17Zm.6-24.93a3.47,3.47,0,0,0,2.62-1.09,4.82,4.82,0,0,0,1.09-3.43,4.4,4.4,0,0,0-1.09-3.22,3.41,3.41,0,0,0-2.62-1.14,3.6,3.6,0,0,0-2.67,1.09,4.52,4.52,0,0,0-1,3.27,4.91,4.91,0,0,0,1,3.43A3.6,3.6,0,0,0,118.19,60.24Zm.65,19.91a9.08,9.08,0,0,0,4.47-1,2.71,2.71,0,0,0,1.75-2.35A1.66,1.66,0,0,0,124,75.13a8.29,8.29,0,0,0-3.06-.43h-2.78a19.84,19.84,0,0,1-2.29-.11,8.64,8.64,0,0,1-1.52-.22A3.64,3.64,0,0,0,112.84,77a2.45,2.45,0,0,0,1.64,2.29A9.74,9.74,0,0,0,118.84,80.15Zm24-5.84a8.42,8.42,0,0,1-3.38-.65A7.09,7.09,0,0,1,137,72a8.82,8.82,0,0,1-1.63-2.62,9,9,0,0,1-.55-3.22,7.57,7.57,0,0,1,3.6-6.65q3.6-2.4,11.61-3.22a4.3,4.3,0,0,0-1.09-2.83,3.93,3.93,0,0,0-3.16-1.09,10,10,0,0,0-3.49.65,26.58,26.58,0,0,0-3.65,1.8l-2.89-5.29a28.46,28.46,0,0,1,5.45-2.56,18.72,18.72,0,0,1,6.11-1q5.24,0,8,3T158,58.17V73.66h-6.54l-.55-2.78h-.22a18.28,18.28,0,0,1-3.65,2.51A9.44,9.44,0,0,1,142.87,74.31Zm2.73-6.21a4.38,4.38,0,0,0,2.34-.6A11.32,11.32,0,0,0,150,65.81V61.06q-4.24.6-5.88,1.75a3.27,3.27,0,0,0-1.64,2.72,2.36,2.36,0,0,0,.82,2A4,4,0,0,0,145.6,68.1Zm19.21,5.56v-27h6.55l.54,4.75h.22a10.4,10.4,0,0,1,3.54-4.09A7.69,7.69,0,0,1,179.81,46a8.46,8.46,0,0,1,1.85.16,5,5,0,0,1,1.37.38l-1.31,6.93a11.4,11.4,0,0,0-1.42-.33,9.7,9.7,0,0,0-1.53-.11,6,6,0,0,0-3.21,1.09A8,8,0,0,0,172.83,58V73.66Zm23.09,0V37.89h10.64a23,23,0,0,1,5,.49,11.15,11.15,0,0,1,3.87,1.52,6.94,6.94,0,0,1,2.51,2.73,7.94,7.94,0,0,1,.93,4,9,9,0,0,1-1.36,4.85,6.85,6.85,0,0,1-3.88,2.95v.22a9.39,9.39,0,0,1,5.29,2.72,8.13,8.13,0,0,1,2,5.84,10.19,10.19,0,0,1-1,4.58A8.85,8.85,0,0,1,209.12,71a12.85,12.85,0,0,1-4.31,2,22.09,22.09,0,0,1-5.51.65Zm4.53-20.56h5.29q4.58,0,6.6-1.58a5.2,5.2,0,0,0,2-4.31,4.79,4.79,0,0,0-2.13-4.42q-2.07-1.3-6.27-1.31h-5.51Zm0,17h6.22a13,13,0,0,0,7.2-1.69A6,6,0,0,0,208.41,63a5.28,5.28,0,0,0-2.51-4.86q-2.51-1.58-7.25-1.58h-6.22Zm37.41,4.25a12.07,12.07,0,0,1-4.69-.92,11.82,11.82,0,0,1-3.88-2.67,14,14,0,0,1-2.72-4.37,16.54,16.54,0,0,1-1-5.89,16.27,16.27,0,0,1,1-5.89,13.89,13.89,0,0,1,2.72-4.41,11.42,11.42,0,0,1,3.88-2.73,12.08,12.08,0,0,1,4.69-.93,11.68,11.68,0,0,1,4.63.93,11.32,11.32,0,0,1,3.93,2.73,13.11,13.11,0,0,1,2.67,4.41,15.63,15.63,0,0,1,1,5.89,15.89,15.89,0,0,1-1,5.89,13.22,13.22,0,0,1-2.67,4.37,11.9,11.9,0,0,1-8.56,3.59Zm0-3.7a6.86,6.86,0,0,0,3.1-.71,7.15,7.15,0,0,0,2.4-2.08,9.73,9.73,0,0,0,1.58-3.21,15.89,15.89,0,0,0,0-8.29,9.67,9.67,0,0,0-1.58-3.27,6.54,6.54,0,0,0-2.4-2.08,6.72,6.72,0,0,0-6.21,0,7.06,7.06,0,0,0-2.46,2.08,10.4,10.4,0,0,0-1.52,3.27,15.89,15.89,0,0,0,0,8.29,10.49,10.49,0,0,0,1.52,3.21,7.76,7.76,0,0,0,2.46,2.08A6.87,6.87,0,0,0,229.84,70.61Zm29.55,3.7a12.1,12.1,0,0,1-4.69-.92,11.88,11.88,0,0,1-3.87-2.67,13.86,13.86,0,0,1-2.73-4.37,16.76,16.76,0,0,1-1-5.89,16.49,16.49,0,0,1,1-5.89,13.73,13.73,0,0,1,2.73-4.41,11.48,11.48,0,0,1,3.87-2.73,12.11,12.11,0,0,1,4.69-.93,11.72,11.72,0,0,1,4.64.93A11.19,11.19,0,0,1,268,50.16a13.13,13.13,0,0,1,2.68,4.41,15.64,15.64,0,0,1,1,5.89,15.89,15.89,0,0,1-1,5.89A13.24,13.24,0,0,1,268,70.72,11.58,11.58,0,0,1,264,73.39,11.72,11.72,0,0,1,259.39,74.31Zm0-3.7a6.87,6.87,0,0,0,3.11-.71,7.15,7.15,0,0,0,2.4-2.08,9.73,9.73,0,0,0,1.58-3.21,15.89,15.89,0,0,0,0-8.29,9.67,9.67,0,0,0-1.58-3.27A6.54,6.54,0,0,0,262.5,51a6.74,6.74,0,0,0-6.22,0,7.12,7.12,0,0,0-2.45,2.08,10.64,10.64,0,0,0-1.53,3.27,16.18,16.18,0,0,0,0,8.29,10.74,10.74,0,0,0,1.53,3.21,7.84,7.84,0,0,0,2.45,2.08A6.93,6.93,0,0,0,259.39,70.61Zm19.25,3V34.83h4.42V61.12h.16l11.29-14h5l-8.89,10.63,10.09,15.87h-4.9L288,60.9l-5,5.78v7Z"/></svg>