<svg width="25" height="24" viewBox="0 0 25 24" fill="none" xmlns="http://www.w3.org/2000/svg">
<g id="Checkbox" clip-path="url(#clip0_867_8642)">
<path id="Vector" d="M12.5 0C5.88293 0 0.5 5.38293 0.5 12C0.5 18.6171 5.88293 24 12.5 24C19.1171 24 24.5 18.6171 24.5 12C24.5 5.38293 19.1171 0 12.5 0Z" fill="#EEFFF7"/>
<path id="Vector_2" d="M18.5823 9.45728L12.0822 15.9572C11.8872 16.1522 11.6312 16.2503 11.3752 16.2503C11.1193 16.2503 10.8633 16.1522 10.6683 15.9572L7.41833 12.7072C7.02722 12.3163 7.02722 11.6842 7.41833 11.2933C7.80927 10.9022 8.44116 10.9022 8.83228 11.2933L11.3752 13.8362L17.1683 8.04333C17.5593 7.65222 18.1912 7.65222 18.5823 8.04333C18.9732 8.43427 18.9732 9.06616 18.5823 9.45728Z" fill="#6FCD9E"/>
</g>
<defs>
<clipPath id="clip0_867_8642">
<rect width="24" height="24" fill="white" transform="translate(0.5)"/>
</clipPath>
</defs>
</svg>
