<?xml version="1.0" standalone="no"?>
<!DOCTYPE svg PUBLIC "-//W3C//DTD SVG 20010904//EN"
 "http://www.w3.org/TR/2001/REC-SVG-20010904/DTD/svg10.dtd">
<svg version="1.0" xmlns="http://www.w3.org/2000/svg"
 width="64.000000pt" height="64.000000pt" viewBox="0 0 64.000000 64.000000"
 preserveAspectRatio="xMidYMid meet">

<g transform="translate(0.000000,64.000000) scale(0.100000,-0.100000)"
fill="#000000" stroke="none">
<path d="M1 533 c1 -77 3 -98 9 -74 15 65 34 74 180 83 73 5 187 5 260 0 148
-10 167 -19 180 -89 6 -27 8 -5 9 75 l1 112 -320 0 -320 0 1 -107z"/>
<path d="M260 320 l0 -91 63 36 c34 19 69 40 77 45 17 12 20 9 -77 65 l-63 36
0 -91z"/>
<path d="M1 113 l-1 -113 320 0 320 0 -1 113 c-1 79 -3 101 -9 74 -13 -70 -32
-79 -180 -90 -80 -6 -180 -6 -260 0 -148 11 -167 20 -180 90 -6 27 -8 5 -9
-74z"/>
</g>
</svg>
